
<svg width="100%" height="100%" viewBox="0 0 1318 412" version="1.1" xmlns="http://www.w3.org/2000/svg" xmlns:xlink="http://www.w3.org/1999/xlink" xml:space="preserve" xmlns:serif="http://www.serif.com/" style="fill-rule:evenodd;clip-rule:evenodd;stroke-linecap:round;stroke-linejoin:round;stroke-miterlimit:2;">
    <g transform="matrix(1,0,0,1,-10763,-1307)">
        <g transform="matrix(1,0,0,1,-5163.96,0)">
            <g transform="matrix(1,0,0,1,392.376,-1388.39)">
                <g transform="matrix(2.07261,0,0,2.07261,16006.4,2695.34)">
                    <g>
                        <g>
                            <path d="M108.197,41.75C101.992,35.931 93.847,32.052 84.538,32.052C77.557,32.052 67.473,36.126 66.31,44.27C64.952,52.804 74.648,56.1 80.854,58.233L90.163,61.142C109.555,67.153 123.712,77.432 119.833,101.09C117.507,115.634 111.689,130.567 98.501,140.457C85.509,150.153 69.606,154.226 54.868,154.226C36.445,154.226 19.38,148.02 6,137.547L27.137,106.908C35.476,115.246 45.56,122.034 58.553,122.034C67.473,122.034 77.752,117.573 79.303,107.296C81.048,96.63 66.698,92.945 58.94,90.618C36.058,83.832 21.319,77.626 25.974,49.312C30.628,19.642 54.868,0.25 84.151,0.25C98.889,0.25 116.149,4.903 127.978,12.272L108.197,41.75Z" style="fill:rgb(34,53,111);fill-rule:nonzero;"/>
                            <path d="M153.185,4.128L191.195,4.128L246.657,93.528L247.046,93.528L261.202,4.128L299.21,4.128L276.134,150.347L238.125,150.347L182.663,60.754L182.274,60.754L168.117,150.347L130.108,150.347L153.185,4.128Z" style="fill:rgb(34,53,111);fill-rule:nonzero;"/>
                            <path d="M356.996,36.32L353.118,60.754L394.811,60.754L389.77,92.945L348.076,92.945L338.962,150.347L300.953,150.347L324.03,4.128L408,4.128L402.958,36.32L356.996,36.32Z" style="fill:rgb(34,53,111);fill-rule:nonzero;"/>
                        </g>
                    </g>
                </g>
                <g transform="matrix(1,0,0,1,5163.96,-2.32571)">
                    <text x="10854.9px" y="3093.05px" style="font-family:'SourceSansPro-Bold', 'Source Sans Pro', sans-serif;font-weight:700;font-size:50px;fill:rgb(34,53,111);">R<tspan x="10895.8px 10933.4px 10971.4px 11011.4px 11055.8px 11099.2px 11137.2px 11162.5px 11202.9px 11239px 11276.6px 11309.4px 11348.7px 11392.6px 11430.2px 11478.5px 11503.8px 11540.8px 11578.8px 11618.9px " y="3093.05px 3093.05px 3093.05px 3093.05px 3093.05px 3093.05px 3093.05px 3093.05px 3093.05px 3093.05px 3093.05px 3093.05px 3093.05px 3093.05px 3093.05px 3093.05px 3093.05px 3093.05px 3093.05px 3093.05px ">ESPONSIBLE CHEMISTRY</tspan></text>
                </g>
                <g transform="matrix(0.21861,0,0,0.21861,15194,2522.72)">
                    <g>
                        <g transform="matrix(0.763771,0.0379135,-0.0379135,0.763771,652.421,320.299)">
                            <g transform="matrix(12.3187,0,0,12.3187,940.482,214.104)">
                                <path d="M41.64,73.987L69.508,72.785L83.108,96.73C92.189,83.31 105.294,75.049 121.562,74.588L135.441,50.936L121.752,27.629C88.807,28.049 59.218,46.195 41.64,73.987Z" style="fill:rgb(10,190,194);fill-rule:nonzero;"/>
                            </g>
                            <g transform="matrix(12.3187,0,0,12.3187,940.482,214.104)">
                                <path d="M128.826,27.598L142.474,50.836L128.534,74.591C144.677,75.734 158.267,83.545 166.816,97.403L194.231,97.596L207.578,74.076C190.696,45.744 161.64,28.898 128.826,27.598Z" style="fill:rgb(152,190,191);fill-rule:nonzero;"/>
                            </g>
                            <g transform="matrix(12.3187,0,0,12.3187,940.482,214.104)">
                                <path d="M166.892,153.27C157.81,166.689 142.692,175.05 126.424,175.512L95.675,223.922L126.233,222.47C158.608,220.475 189.874,204.806 207.452,177.015L180.491,177.215L166.892,153.27Z" style="fill:rgb(11,94,140);fill-rule:nonzero;"/>
                            </g>
                            <g transform="matrix(12.3187,0,0,12.3187,940.482,214.104)">
                                <path d="M211.457,171.108C219.594,156.616 222.479,141.72 222.479,124.999C222.479,109.142 218.616,93.526 211.277,79.595L197.965,103.051L170.432,102.856C173.779,109.721 175.534,117.304 175.534,124.999C175.534,133.406 174.85,140.13 170.874,147.476L184.411,171.31L211.457,171.108Z" style="fill:rgb(176,216,214);fill-rule:nonzero;"/>
                            </g>
                            <g transform="matrix(12.3187,0,0,12.3187,940.871,221.94)">
                                <path d="M66.961,78.502C66.961,78.502 39.008,79.046 38.556,79.912C31.324,93.764 27.521,109.262 27.521,124.999C27.521,140.857 31.384,156.473 38.722,170.405L52.034,146.95L79.567,147.143C76.22,140.278 74.465,132.695 74.465,124.999C74.465,116.593 76.56,108.312 80.536,100.966L66.961,78.502Z" style="fill:rgb(0,130,202);fill-rule:nonzero;"/>
                            </g>
                        </g>
                        <g transform="matrix(9.40864,0.467044,-0.467044,9.40864,1362.62,519.482)">
                            <path d="M94.565,214.598L119.069,176.488C102.926,175.345 92.103,167.851 83.553,153.993L56.137,153.801L42.791,177.321C59.673,205.653 81.584,211.353 94.565,214.598Z" style="fill:none;fill-rule:nonzero;stroke:rgb(0,45,115);stroke-width:2.39px;stroke-dasharray:0,7.18,0,0;"/>
                        </g>
                    </g>
                </g>
            </g>
        </g>
    </g>
</svg>