<svg xmlns="http://www.w3.org/2000/svg" xmlns:xlink="http://www.w3.org/1999/xlink" width="100" height="100" viewBox="0 0 100 100"><circle stroke="none" fill="#ffffff" r="48%" cx="50%" cy="50%"></circle><g transform="translate(50 50) scale(0.69 0.69) rotate(0) translate(-50 -50)" style="fill:#002d73"><svg fill="#002d73" xmlns="http://www.w3.org/2000/svg" xmlns:xlink="http://www.w3.org/1999/xlink" version="1.1" x="0px" y="0px" viewBox="-55 147 500 500" style="enable-background:new -55 147 500 500;" xml:space="preserve"><path d="M327.4,213.1L299.8,189c-14.6-12.7-32.1-21.3-50.9-25.1v-5.3c0.1-6.4-5.1-11.6-11.5-11.6h-84.8c-6.4,0-11.6,5.2-11.6,11.5  v5.3c-18.7,3.8-36.3,12.4-50.9,25.1L62.5,213c-35,30.6-55.1,74.8-55.1,121.2v67.1c0,3.4,2.7,6.1,6.1,6.1H24v1.9  c0,9,7.3,16.3,16.3,16.3h4.8v150.1c0,39.9,65.8,71.2,149.8,71.2s149.8-31.3,149.8-71.2v-150h4.8c9,0,16.3-7.3,16.3-16.3v-1.9h10.5  c3.4,0,6.1-2.7,6.1-6.1v-67.1C382.5,287.9,362.4,243.7,327.4,213.1z M153.2,159.1h83.6v17h-83.6L153.2,159.1L153.2,159.1z   M40.5,413.5c-2.3,0-4.2-1.9-4.2-4.1v-15.9c0-2.2,1.9-4.1,4.2-4.1h4.8v24.2h-4.8V413.5z M178.3,406.7c-10.7,0-19.4,8.7-19.4,19.4  v104c0,6-4.9,10.9-11,10.9s-11-4.9-11-10.9V427.4c0-11.4-9.3-20.7-20.8-20.7s-20.8,9.3-20.8,20.7v11c0,1.7-0.8,3.4-2.1,4.5  c-0.8,0.7-2.4,1.7-4.8,1.3c-2.8-0.4-5-3.1-5-6.2v-78.7c2.7,0.8,5.5,1.5,8.4,2.2c27.6,6.7,64.2,10.4,103.1,10.4  c6.8,0,13.6-0.1,20.2-0.3v96.8c0,4.8-3.9,8.7-8.7,8.7c-4.8,0-8.7-3.9-8.7-8.7v-42.3C197.8,415.4,189,406.7,178.3,406.7z   M185.6,441.4c-4.9-0.1-9.8-0.2-14.6-0.4v-14.9c0-4,3.3-7.3,7.3-7.3s7.3,3.3,7.3,7.3V441.4z M124.8,437c-6-0.8-11.7-1.8-17.2-2.8  v-6.8c0-4.7,3.9-8.6,8.6-8.6c4.7,0,8.6,3.8,8.6,8.6L124.8,437L124.8,437z M71.4,423.8c-10.6-4.7-14-9-14-11.2v-17.5  c3.8,2.4,8.5,4.7,14,6.8V423.8z M71.4,388.9c-10.6-4.7-14-9-14-11.2v-29.2c1.4,0.9,2.9,1.7,4.5,2.6c0.5,0.4,1.1,0.7,1.8,0.9  c2.4,1.2,5,2.3,7.8,3.4v33.5H71.4z M195,359.8c-37.9,0-73.5-3.6-100.2-10.1c-6.8-1.7-12.4-3.4-17.1-5c18-9.1,60.2-17.2,117.3-17.2  c57,0,99.2,8.1,117.2,17.2c-4.7,1.7-10.3,3.4-17.1,5.1C268.5,356.2,232.9,359.8,195,359.8z M298.1,361.5c12.1-3,21.9-6.3,29.3-10.1  c0.1-0.1,0.2-0.1,0.3-0.2c1.8-0.9,3.4-1.9,4.9-2.8v29.2c0,3.3-7.7,11.6-37.1,18.8c-19,4.7-42.5,7.8-68.2,9.3V371  C253.9,369.5,278.3,366.3,298.1,361.5z M227.4,417.8c26.7-1.5,51.2-4.8,71.1-9.6c15-3.7,26.4-8,34.2-13v17.4  c0,3.3-7.7,11.6-37.1,18.8c-19,4.7-42.5,7.8-68.2,9.3L227.4,417.8L227.4,417.8z M325.4,338.5c-20.7-16-79-23.2-130.4-23.2  c-51.5,0-109.8,7.2-130.4,23.3c-5.4-3.3-7.2-6.1-7.2-7.7c0-3.4,7.8-11.6,37.4-18.8c26.7-6.5,62.3-10.1,100.2-10.1  s73.5,3.6,100.2,10.1c29.6,7.2,37.4,15.5,37.4,18.8C332.6,332.5,330.8,335.3,325.4,338.5z M195,634.9c-74.6,0-137.6-27.1-137.6-59.1  V430.1c3.8,2.4,8.5,4.7,14,6.8v1c0,9,6.6,16.8,15.3,18.2c5.3,0.8,10.6-0.7,14.6-4.1c1.9-1.6,3.5-3.7,4.5-5.9c6,1.1,12.4,2.2,19,3.1  v80.9c0,12.7,10.4,23.1,23.1,23.1s23.1-10.3,23.1-23.1v-77c4.8,0.2,9.6,0.3,14.6,0.4v14.8c0,11.5,9.4,20.8,20.9,20.8  c11.5,0,20.9-9.3,20.9-20.8v-15.6c26.7-1.5,51.2-4.8,71.1-9.6c15-3.7,26.4-8,34.2-13v145.6C332.6,607.8,269.6,634.9,195,634.9z   M353.7,409.4c0,2.2-1.9,4.1-4.2,4.1h-4.8v-24.2h4.8c2.3,0,4.2,1.9,4.2,4.1V409.4z M370.3,395.4h-4.5v-1.9c0-9-7.3-16.3-16.3-16.3  h-4.8v-46.4c0-12.8-15.7-23.1-46.7-30.6c-27.6-6.7-64.2-10.4-103.1-10.4s-75.5,3.7-103.1,10.4c-31,7.5-46.7,17.9-46.7,30.6v46.4  h-4.8c-9,0-16.3,7.3-16.3,16.3v1.9h-4.5v-61.1c0-42.9,18.6-83.8,51-112.1l27.6-24.1c12.3-10.8,27.1-18.2,42.8-21.9v0.5  c0,6.4,5.2,11.5,11.6,11.5h84.8c6.4,0,11.6-5.2,11.6-11.5v-0.5c15.8,3.6,30.5,11.1,42.8,21.9l27.6,24.1c32.4,28.3,51,69.2,51,112.1  V395.4z"></path></svg></g></svg>