<svg xmlns="http://www.w3.org/2000/svg" xmlns:xlink="http://www.w3.org/1999/xlink" width="100" height="100" viewBox="0 0 100 100"><circle stroke="none" fill="#ffffff" r="48%" cx="50%" cy="50%"></circle><g transform="translate(50 50) scale(0.69 0.69) rotate(0) translate(-50 -50)" style="fill:#002d73"><svg fill="#002d73" xmlns="http://www.w3.org/2000/svg" xmlns:xlink="http://www.w3.org/1999/xlink" version="1.1" x="0px" y="0px" viewBox="0 0 100 100" style="enable-background:new 0 0 100 100;" xml:space="preserve"><path d="M7.5,14.9v51.3H92V14.9H7.5z M53.8,47.2l-11.6,6.7V40.5V27.2l11.6,6.7l11.6,6.7L53.8,47.2z"></path><path d="M92,75.8H57.3c-0.9-3.4-4-5.9-7.6-5.9s-6.7,2.5-7.6,5.9H7.5v4h34.7c0.9,3.4,4,5.9,7.6,5.9s6.7-2.5,7.6-5.9H92V75.8z   M49.7,81.7c-2.1,0-3.9-1.7-3.9-3.9s1.7-3.9,3.9-3.9s3.9,1.7,3.9,3.9S51.9,81.7,49.7,81.7z"></path></svg></g></svg>