<svg xmlns="http://www.w3.org/2000/svg" xmlns:xlink="http://www.w3.org/1999/xlink" width="100" height="100" viewBox="0 0 100 100"><circle stroke="none" fill="#ffffff" r="48%" cx="50%" cy="50%"></circle><g transform="translate(50 50) scale(0.69 0.69) rotate(0) translate(-50 -50)" style="fill:#002d73"><svg fill="#002d73" xmlns="http://www.w3.org/2000/svg" viewBox="0 0 64 64" x="0px" y="0px"><g><path d="M61,2H37a1,1,0,0,0-1,1V7a1,1,0,0,0,1,1h1v5a1,1,0,0,0,1,1h2V44a2,2,0,0,1-4,0V37A13.015,13.015,0,0,0,24,24H18V23a1,1,0,0,0-1-1H11a1,1,0,0,0-1,1v1H3a1,1,0,0,0-1,1V39a1,1,0,0,0,1,1h7v1a1,1,0,0,0,1,1h6a1,1,0,0,0,1-1V40h2a1,1,0,0,1,1,1v3a18,18,0,0,0,36,0V14h2a1,1,0,0,0,1-1V8h1a1,1,0,0,0,1-1V3A1,1,0,0,0,61,2ZM4,38V30H8V28H4V26h6V38Zm12,2H12V24h4Zm4-2H18V26h6A11.013,11.013,0,0,1,35,37v4.329A2.011,2.011,0,0,1,33.5,42a2.106,2.106,0,0,1-1.586-.748,4.019,4.019,0,0,0-5.83,0A2.106,2.106,0,0,1,24.5,42a2.013,2.013,0,0,1-1.5-.665V41A3,3,0,0,0,20,38ZM39,60A16.019,16.019,0,0,1,23,44v-.288A3.826,3.826,0,0,0,24.5,44a4.051,4.051,0,0,0,2.915-1.252,2.056,2.056,0,0,1,3.172,0A4.046,4.046,0,0,0,33.5,44a3.814,3.814,0,0,0,1.5-.29V44a4,4,0,0,0,8,0V32.71a3.824,3.824,0,0,0,1.5.29,4.052,4.052,0,0,0,2.916-1.252,2.055,2.055,0,0,1,3.172,0A4.051,4.051,0,0,0,53.5,33a3.816,3.816,0,0,0,1.5-.288V44A16.019,16.019,0,0,1,39,60ZM55,30.333A2.008,2.008,0,0,1,53.5,31a2.108,2.108,0,0,1-1.585-.747,4.017,4.017,0,0,0-5.829,0A2.11,2.11,0,0,1,44.5,31a2.017,2.017,0,0,1-1.5-.67V14H55ZM58,12H40V8h2v2h2V8h2v2h2V8h2v2h2V8h2v2h2V8h2Zm2-6H38V4H60Z"></path><path d="M50,36a3,3,0,1,0,3,3A3,3,0,0,0,50,36Zm0,4a1,1,0,1,1,1-1A1,1,0,0,1,50,40Z"></path><path d="M32,50a3,3,0,1,0,3,3A3,3,0,0,0,32,50Zm0,4a1,1,0,1,1,1-1A1,1,0,0,1,32,54Z"></path><path d="M47,46a3,3,0,1,0,3,3A3,3,0,0,0,47,46Zm0,4a1,1,0,1,1,1-1A1,1,0,0,1,47,50Z"></path><rect x="43" y="55" width="2" height="2"></rect><rect x="38" y="51" width="2" height="2"></rect><rect x="26" y="46" width="2" height="2"></rect><rect x="51" y="44" width="2" height="2"></rect><rect x="20" y="28" width="2" height="2"></rect><path d="M33,24a4,4,0,1,0-4-4A4,4,0,0,0,33,24Zm0-6a2,2,0,1,1-2,2A2,2,0,0,1,33,18Z"></path><path d="M26,16a3,3,0,1,0-3-3A3,3,0,0,0,26,16Zm0-4a1,1,0,1,1-1,1A1,1,0,0,1,26,12Z"></path></g></svg></g></svg>