<svg xmlns="http://www.w3.org/2000/svg" xmlns:xlink="http://www.w3.org/1999/xlink" width="100" height="100" viewBox="0 0 100 100"><circle stroke="none" fill="#ffffff" r="48%" cx="50%" cy="50%"></circle><g transform="translate(50 50) scale(0.69 0.69) rotate(0) translate(-50 -50)" style="fill:#002d73"><svg fill="#002d73" xmlns:dc="http://purl.org/dc/elements/1.1/" xmlns:cc="http://creativecommons.org/ns#" xmlns:rdf="http://www.w3.org/1999/02/22-rdf-syntax-ns#" xmlns:svg="http://www.w3.org/2000/svg" xmlns="http://www.w3.org/2000/svg" xmlns:sodipodi="http://sodipodi.sourceforge.net/DTD/sodipodi-0.dtd" xmlns:inkscape="http://www.inkscape.org/namespaces/inkscape" version="1.1" x="0px" y="0px" viewBox="0 0 100 100"><g transform="translate(0,-952.36218)"><path style="text-indent:0;text-transform:none;direction:ltr;block-progression:tb;baseline-shift:baseline;color:#000000;enable-background:accumulate;" d="m 92.1562,963.37778 c 0.5426,0.073 0.8367,0.5704 0.8438,1 l 0,72.00002 c -0.013,0.4833 -0.4251,0.9235 -0.9062,0.9688 l -42,4 c -0.062,0.01 -0.1251,0.01 -0.1876,0 l -42,-4 C 7.4251,1037.3016 7.013,1036.8611 7,1036.3778 l 0,-72.00002 c 0,-0.5564 0.5397,-1.0521 1.0938,-1 l 41.9062,4 41.9062,-4 c 0.088,-0.01 0.1727,-0.01 0.25,0 z m -1.1562,2.0625 -40,3.8125 0,70.03122 40,-3.8124 0,-70.03132 z m -82,0 0,70.03132 40,3.8124 0,-70.03122 -40,-3.8125 z m 72.1562,10.9375 c 0.542,0.095 0.8386,0.5986 0.8438,1 l 0,26.00002 c -0.013,0.4833 -0.4251,0.9235 -0.9062,0.9688 l -20,2 c -0.5438,0.051 -1.0791,-0.4229 -1.0938,-0.9688 l 0,-26.00002 c 0,-0.4937 0.4148,-0.9536 0.9062,-1 l 20,-2 c 0.087,0 0.1726,-0.014 0.25,0 z m -1.1562,2.0625 -18,1.8125 0,24.00002 18,-1.7812 0,-24.03132 z m -61.0312,1.9063 a 1.0001,1.0001 0 0 1 0.125,0.031 l 20,2 a 1.0001,1.0001 0 1 1 -0.1876,1.9688 l -20,-2 a 1.000496,1.000496 0 0 1 0.063,-2 z m 0,14 a 1.0001,1.0001 0 0 1 0.125,0.031 l 20,2 a 1.0001,1.0001 0 1 1 -0.1876,1.9688 l -20,-2 a 1.000496,1.000496 0 0 1 0.063,-2 z m 0,14.00002 a 1.0001,1.0001 0 0 1 0.125,0.031 l 20,2 a 1.0001,1.0001 0 1 1 -0.1876,1.9688 l -20,-2 a 1.000496,1.000496 0 0 1 0.063,-2 z m 0,14 a 1.0001,1.0001 0 0 1 0.125,0.031 l 20,2 a 1.0001,1.0001 0 1 1 -0.1876,1.9688 l -20,-2 a 1.000496,1.000496 0 0 1 0.063,-2 z" fill="#002d73" fill-opacity="1" stroke="none" marker="none" visibility="visible" display="inline" overflow="visible"></path></g></svg></g></svg>