<svg xmlns="http://www.w3.org/2000/svg" xmlns:xlink="http://www.w3.org/1999/xlink" width="100" height="100" viewBox="0 0 100 100"><circle stroke="none" fill="#ffffff" r="48%" cx="50%" cy="50%"></circle><g transform="translate(50 50) scale(0.69 0.69) rotate(0) translate(-50 -50)" style="fill:#002d73"><svg fill="#002d73" xmlns="http://www.w3.org/2000/svg" xmlns:xlink="http://www.w3.org/1999/xlink" version="1.1" x="0px" y="0px" viewBox="0 0 100 100" style="enable-background:new 0 0 100 100;" xml:space="preserve"><style type="text/css">
	.st0{fill:none;stroke:#002d73;stroke-width:2;stroke-linecap:round;stroke-linejoin:round;stroke-miterlimit:10;}
	.st1{fill:none;stroke:#002d73;stroke-width:2;stroke-miterlimit:10;}
	
		.st2{fill:none;stroke:#002d73;stroke-width:2;stroke-linecap:round;stroke-linejoin:round;stroke-miterlimit:10;stroke-dasharray:3,4;}
	.st3{fill:none;stroke:#002d73;stroke-width:2;stroke-linecap:round;stroke-linejoin:round;stroke-dasharray:3.0638,5.1064;}
</style><path d="M89.274,21.502c-10.756,0-19.507,9.409-19.507,20.975v12.697c0,10.24-7.528,18.589-16.898,18.941V22.28  c0-2.225-1.81-4.034-4.034-4.034h-5.686v-4.633c0-1.893-1.622-3.432-3.615-3.432H22.931c-1.994,0-3.615,1.539-3.615,3.432v4.633  h-5.008c-2.224,0-4.034,1.81-4.034,4.034v55.711c0,2.224,1.81,4.033,4.034,4.033h5.008v4.725c0,1.893,1.622,3.432,3.615,3.432  h16.603c1.994,0,3.615-1.539,3.615-3.432v-4.725h5.686c2.224,0,4.034-1.81,4.034-4.033v-1.876  c10.473-0.35,18.898-9.597,18.898-20.941V42.477c0-10.463,7.854-18.975,17.507-18.975c0.552,0,1-0.447,1-1  S89.826,21.502,89.274,21.502z M50.869,42.643v3.585H12.274v-3.585H50.869z M12.274,40.643v-3.584h38.595v3.584H12.274z   M50.869,48.228v3.584H12.274v-3.584H50.869z M50.869,53.812v3.584H12.274v-3.584H50.869z M50.869,59.396v3.584H12.274v-3.584  H50.869z M50.869,35.059H12.274v-3.584h38.595V35.059z M12.274,64.979h38.595v3.585H12.274V64.979z M50.869,29.475H12.274v-3.584  h38.595V29.475z M12.274,70.564h38.595v3.584H12.274V70.564z M21.316,13.613c0-0.789,0.725-1.432,1.615-1.432h16.603  c0.891,0,1.615,0.643,1.615,1.432v4.633H21.316V13.613z M14.308,20.246h34.527c1.122,0,2.034,0.912,2.034,2.034v1.61H12.274v-1.61  C12.274,21.158,13.186,20.246,14.308,20.246z M41.149,86.749c0,0.789-0.725,1.432-1.615,1.432H22.931  c-0.891,0-1.615-0.643-1.615-1.432v-4.725h19.833V86.749z M48.835,80.024H14.308c-1.122,0-2.034-0.912-2.034-2.033v-1.843h38.595  v1.843C50.869,79.112,49.957,80.024,48.835,80.024z"></path></svg></g></svg>