<svg xmlns="http://www.w3.org/2000/svg" xmlns:xlink="http://www.w3.org/1999/xlink" width="100" height="100" viewBox="0 0 100 100"><circle stroke="none" fill="#ffffff" r="48%" cx="50%" cy="50%"></circle><g transform="translate(50 50) scale(0.69 0.69) rotate(0) translate(-50 -50)" style="fill:#002d73"><svg fill="#002d73" xmlns="http://www.w3.org/2000/svg" xmlns:xlink="http://www.w3.org/1999/xlink" version="1.1" x="0px" y="0px" viewBox="0 0 267.216 249.114" style="enable-background:new 0 0 267.216 249.114;" xml:space="preserve"><g><path d="M50.608,30.439c-0.106,0.888-0.168,1.791-0.168,2.708c0,12.426,10.075,22.5,22.5,22.5c12.427,0,22.5-10.074,22.5-22.5   c0-0.917-0.062-1.819-0.168-2.708H50.608z"></path><path d="M49.408,22.403c-1.666,0-3.016,1.353-3.016,3.019c0,1.668,1.35,3.017,3.016,3.017h0.402h46.262h0.4   c1.668,0,3.018-1.35,3.018-3.017c0-1.666-1.35-3.019-3.018-3.019h-0.416c-0.017-0.674-0.061-1.341-0.134-2   c-0.769-6.852-4.528-12.799-9.946-16.502v1.847c0,1.318-1.068,2.389-2.387,2.389c-1.318,0-2.389-1.07-2.389-2.389V1.402   C79.346,0.692,77.378,0.21,75.328,0v5.748c0,1.318-1.068,2.389-2.387,2.389c-1.32,0-2.389-1.07-2.389-2.389V0   c-2.05,0.21-4.018,0.693-5.873,1.403v4.345c0,1.318-1.068,2.389-2.389,2.389c-1.318,0-2.387-1.07-2.387-2.389V3.902   c-5.417,3.704-9.176,9.649-9.944,16.501c-0.073,0.659-0.117,1.326-0.134,2H49.408z"></path><path d="M33.903,177.019l12.318-12.317v72.049c0,6.83,5.537,12.363,12.363,12.363c6.828,0,12.365-5.533,12.365-12.363v-90.271   h4.635v90.271c0,6.83,5.537,12.363,12.363,12.363c6.828,0,12.365-5.533,12.365-12.363V86.794c0.592,1.215,1.189,2.609,1.779,4.234   c2.817,7.811,5.188,20.63,5.181,40.639c0,5.515-0.178,11.572-0.563,18.224c-0.259,4.412,3.11,8.195,7.521,8.451   c0.158,0.01,0.315,0.014,0.471,0.014c4.207,0.001,7.734-3.283,7.982-7.537c0.401-6.929,0.588-13.295,0.59-19.151   c-0.041-30.183-4.861-46.888-11.436-56.932c-3.284-4.985-7.127-8.182-10.678-9.955c-3.412-1.72-6.41-2.11-8.213-2.132   c-0.121-0.006-0.24-0.019-0.362-0.019h-4.324l-2.57,20.092l-9.75-11.75l7.528-8.342h-2.606h-18.45l7.528,8.342l-9.75,11.75   l-2.57-20.092h-3.67c-0.115,0-0.227,0.012-0.34,0.017c-1.802,0.019-4.813,0.405-8.242,2.134   c-5.38,2.666-11.177,8.501-15.235,18.839c-3.478,8.787-5.979,20.91-6.676,38.164L0,145.239l32.842,32.843L33.903,177.019z    M23.852,150.824c0.251,4.252,3.776,7.532,7.981,7.533c0.158,0,0.315-0.005,0.475-0.015c4.411-0.26,7.777-4.046,7.518-8.455   c-0.392-6.653-0.57-12.71-0.568-18.223c-0.013-8.122,0.378-15.046,1.031-20.935l27.831,27.833l-35.275,35.275L4.245,145.239   l19.076-19.076c-0.039,1.788-0.066,3.608-0.067,5.502C23.256,137.522,23.443,143.889,23.852,150.824z M46.222,86.745v25.677   l-5.462-5.461C42.105,97.392,44.174,90.935,46.222,86.745z"></path><ellipse transform="matrix(0.986 -0.1666 0.1666 0.986 -20.3256 40.8379)" cx="233.252" cy="141.57" rx="1.809" ry="1.808"></ellipse><path d="M232.857,139.235c1.979-0.334-1.906-17.432-2.911-17.262C228.941,122.143,230.877,139.569,232.857,139.235z"></path><path d="M217.933,154.231c0.648,0.786,14.773-9.605,13.494-11.152C230.149,141.531,217.283,153.446,217.933,154.231z"></path><path d="M251.876,148.506c0.355-0.956-15.705-7.991-16.405-6.111C234.771,144.278,251.521,149.461,251.876,148.506z"></path><ellipse transform="matrix(0.9913 -0.1316 0.1316 0.9913 -15.726 22.8121)" cx="164.794" cy="130.43" rx="2.52" ry="2.52"></ellipse><path d="M164.358,127.158c2.775-0.368-1.801-24.379-3.208-24.192C159.741,103.153,161.584,127.526,164.358,127.158z"></path><path d="M142.829,147.317c0.867,1.127,21.053-12.655,19.347-14.874C160.471,130.222,141.964,146.19,142.829,147.317z"></path><path d="M167.844,131.69c-1.067,2.587,22.011,10.63,22.554,9.317C190.941,139.694,168.912,129.104,167.844,131.69z"></path><ellipse transform="matrix(0.6745 -0.7382 0.7382 0.6745 6.9629 172.3584)" cx="198.96" cy="78.282" rx="5.813" ry="5.814"></ellipse><path d="M246.137,121.392c2.211-2.421-37.2-42.739-41.557-37.973C200.225,88.185,243.927,123.813,246.137,121.392z"></path><path d="M200.598,70.847c6.306,1.389,15.309-54.271,12.106-54.977C209.502,15.164,194.291,69.457,200.598,70.847z"></path><path d="M191.701,80.582c-1.951-6.155-54.656,13.877-53.666,17.002C139.025,100.709,193.651,86.737,191.701,80.582z"></path><polygon points="235.383,168.403 234.348,144.735 232.511,144.735 231.475,168.403 205.522,168.403 201.937,86.452 196.032,86.452    192.444,168.403 167.418,168.403 165.93,134.401 163.369,134.401 161.881,168.403 108.532,168.403 108.532,172.549    267.216,172.549 267.216,168.403  "></polygon></g></svg></g></svg>