<svg xmlns="http://www.w3.org/2000/svg" xmlns:xlink="http://www.w3.org/1999/xlink" width="100" height="100" viewBox="0 0 100 100"><circle stroke="none" fill="#ffffff" r="48%" cx="50%" cy="50%"></circle><g transform="translate(50 50) scale(0.69 0.69) rotate(0) translate(-50 -50)" style="fill:#002d73"><svg fill="#002d73" xmlns="http://www.w3.org/2000/svg" xmlns:xlink="http://www.w3.org/1999/xlink" version="1.1" x="0px" y="0px" viewBox="0 0 512 512" enable-background="new 0 0 512 512" xml:space="preserve"><g><path d="M261,162.9c3,0,6-0.1,9-0.3l16.2-1.1c19.3,24.8,29.9,55.6,29.9,87.1v14.9v0.7h16.5v-0.7v-14.9v-25.4   c0-15.2,4.8-30,13.7-42.3l18.7,1.2c3.4,0.2,6.8,0.3,10.1,0.3h0c38,0,72.5-14.5,97.1-40.8c24.9-26.6,37.1-62.6,34.6-101.4l-2.4-36.7   l-11.6,7c-13.5,8.1-32.1,10-51.9,12.1c-49.3,5.1-110.8,11.5-108.2,127l1.3,20c-5,6.7-9.1,14-12,21.8c-5.7-14.7-13.6-28.6-23.5-41.2   l1.2-17.7C301.8,29.8,247,24.1,202.9,19.5C185.5,17.7,169.1,16,157.3,9l-11.6-7l-2.3,34c-2.3,34.6,8.7,66.8,30.8,90.5   C196.2,150,227,162.9,261,162.9z M442.6,39.3c16.1-1.7,32.6-3.4,47-8.8l0.7,11c2.3,34.2-8.4,65.8-30.1,89   c-21.4,22.9-51.6,35.5-85.1,35.5h0c-3,0-6-0.1-9-0.3l-4.9-0.3L441,85.5l-11.7-11.7l-79.9,79.9l-0.3-4.6   C347,49.2,393.4,44.4,442.6,39.3z M159.9,37.1l0.6-8.5c12.5,4.5,26.8,5.9,40.7,7.4c43.1,4.5,83.8,8.7,81.9,96l-0.2,2.3L213.7,65   L202,76.7l69.3,69.3l-2.3,0.2c-32.7,2.2-62.1-9-82.6-30.9C167.3,94.9,157.9,67.1,159.9,37.1z"></path><path d="M105.9,339.6c17.1-16.7,39.7-25.9,63.6-25.9h130.6c9.2,0,16.6,7.5,16.6,16.6c0,9.2-7.5,16.6-16.6,16.6h-45.5   c-15.9,0-28.9,13-28.9,28.9s13,28.9,28.9,28.9h115l100.2-91.5c4.7-4.3,11.9-4.1,16.4,0.3c2.3,2.3,3.6,5.4,3.5,8.6   c0,3.3-1.4,6.3-3.8,8.5l-88.3,82.4c-16.9,15.8-39,24.5-62.1,24.5H194.1c-27.7,0-54.1,10.5-74.2,29.6L87.6,498l11.4,12l32.3-30.8   c17-16.2,39.3-25.1,62.7-25.1h141.4c27.3,0,53.4-10.3,73.4-28.9l88.3-82.4c5.7-5.3,8.9-12.6,9-20.4c0.1-7.8-2.9-15.1-8.4-20.6   c-10.8-10.7-28-11-39.2-0.8l-95.5,87.2H254.6c-6.8,0-12.3-5.5-12.3-12.3c0-6.8,5.5-12.3,12.3-12.3h45.5c18.3,0,33.2-14.9,33.2-33.2   c0-18.3-14.9-33.2-33.2-33.2H169.5c-28.3,0-55,10.9-75.2,30.7L4.8,415.4l11.6,11.8L105.9,339.6z"></path></g></svg></g></svg>