<svg xmlns="http://www.w3.org/2000/svg" xmlns:xlink="http://www.w3.org/1999/xlink" width="100" height="100" viewBox="0 0 100 100"><circle stroke="none" fill="#ffffff" r="48%" cx="50%" cy="50%"></circle><g transform="translate(50 50) scale(0.69 0.69) rotate(0) translate(-50 -50)" style="fill:#002d73"><svg fill="#002d73" xmlns="http://www.w3.org/2000/svg" xmlns:xlink="http://www.w3.org/1999/xlink" version="1.1" x="0px" y="0px" viewBox="0 0 100 100" style="enable-background:new 0 0 100 100;" xml:space="preserve"><path d="M79.6362305,34.1557007v-5.215271c0-1.2104492-0.984375-2.1948242-2.1948242-2.1948242h-8.9384766  c-1.2104492,0-2.1948242,0.984375-2.1948242,2.1948242v5.2299805c-2.6612549,1.6931152-10.3637695,9.1869507-10.3637695,39.2026367  c0,1.3652344,0.4033813,2.6003418,1.081543,3.5571289h-6.6744995c0.8967896-1.0662231,1.4406128-2.4798584,1.4406128-4.0571289  c0-35.0153809-11.9319458-42.3519287-15.0341797-43.6672974v-3.5870972  c1.7206421,2.5616455,4.7989502,5.2963867,10.1577148,5.2963867c0.5522461,0,1-0.4477539,1-1s-0.4477539-1-1-1  c-6.4731445,0-8.9719238-4.6187744-9.8082886-6.8725586H41.5625c0.5522461,0,1-0.4477539,1-1V20.203125h4.6157227  c2.3178711,0,4.2036133-1.9301758,4.2036133-4.3027344c0-2.3730469-1.8857422-4.3032227-4.2036133-4.3032227H42.5625V11  c0-0.5522461-0.4477539-1-1-1H19.9780273c-2.9179688,0-5.2919922,2.4335938-5.2919922,5.4248047  c0,2.4643555,1.6728516,4.6333008,4.0683594,5.2749023c3.7993164,1.0175781,6.2539062,3.9018555,6.2539062,7.3447266  l-0.0043335,1.1871948C21.7980957,30.6203003,10,38.0939331,10,72.8730469c0,1.5772705,0.5438232,2.9909058,1.4406128,4.0571289H11  c-0.5522461,0-1,0.4477539-1,1V89c0,0.5522461,0.4477539,1,1,1h78c0.5522461,0,1-0.4477539,1-1V77.9301758  c0-0.5522461-0.4477539-1-1-1h-0.081543C89.5966187,75.9733887,90,74.7382812,90,73.3730469  C90,43.2581787,82.2662964,35.8157349,79.6362305,34.1557007z M68.5029297,28.7456055h8.9384766  c0.1074219,0,0.1948242,0.0874023,0.1948242,0.1948242v4.7290039h-9.328125v-4.7290039  C68.3081055,28.8330078,68.3955078,28.7456055,68.5029297,28.7456055z M67.7075195,35.6694336h10.5507812  C79.3891602,36.2504883,88,41.7329102,88,73.3730469c0,1.9902344-1.215332,3.5493164-2.7670898,3.5493164H60.7114258  c-1.5517578,0-2.7670898-1.559082-2.7670898-3.5493164C57.9443359,41.637207,66.6289062,36.2182617,67.7075195,35.6694336z   M47.1782227,13.597168c1.2148438,0,2.2036133,1.0332031,2.2036133,2.3032227c0,1.2695312-0.9887695,2.3027344-2.2036133,2.3027344  H42.5625v-4.605957H47.1782227z M19.2719727,18.7680664c-1.5224609-0.4077148-2.5859375-1.7827148-2.5859375-3.3432617  C16.6860352,13.5361328,18.1625977,12,19.9780273,12H40.5625v8.0424805h-4.8046875  c-0.0352173,0-0.0650635,0.0165405-0.0993652,0.0200806c-0.03479,0.003418-0.067749-0.0067749-0.1027832,0.0004272  c-0.0335083,0.006958-0.0585938,0.0286255-0.0905762,0.0386353c-0.0654297,0.0204468-0.124939,0.0456543-0.1838379,0.0783691  c-0.0562134,0.0311279-0.1069946,0.0641479-0.1553955,0.1047363c-0.0494385,0.0412598-0.0916138,0.0854492-0.1322632,0.135376  c-0.0405884,0.0499268-0.0753174,0.1000366-0.1056519,0.1567383c-0.0298462,0.055481-0.0518799,0.1117554-0.0709839,0.1729126  c-0.0203247,0.0646973-0.0330811,0.128479-0.039856,0.1970825c-0.0032959,0.0330811-0.0192871,0.0617065-0.0192871,0.0956421  v7.8725586h-7.7524414l0.0029297-0.8671875C27.0083008,23.6689453,23.9716797,20.0263672,19.2719727,18.7680664z   M26.1939697,30.9150391h9.4370117c1.222229,0.4370728,14.1610107,5.9468384,14.1610107,41.9580078  c0,2.2705078-1.6147461,4.0493164-3.6762695,4.0493164H15.6762695C13.6147461,76.9223633,12,75.1435547,12,72.8730469  C12,36.8571167,24.9724121,31.3508301,26.1939697,30.9150391z M88,88H12v-9.0698242h76V88z"></path></svg></g></svg>