<svg xmlns="http://www.w3.org/2000/svg" xmlns:xlink="http://www.w3.org/1999/xlink" width="100" height="100" viewBox="0 0 100 100"><circle stroke="none" fill="#ffffff" r="48%" cx="50%" cy="50%"></circle><g transform="translate(50 50) scale(0.69 0.69) rotate(0) translate(-50 -50)" style="fill:#002d73"><svg fill="#002d73" xmlns="http://www.w3.org/2000/svg" data-name="Layer 1" viewBox="0 0 64 64" x="0px" y="0px"><title>dredge car copy</title><path d="M34,45.5A3.5,3.5,0,1,0,37.5,42,3.5,3.5,0,0,0,34,45.5Zm5,0A1.5,1.5,0,1,1,37.5,44,1.5,1.5,0,0,1,39,45.5Z"></path><path d="M45.5,49A3.5,3.5,0,1,0,42,45.5,3.5,3.5,0,0,0,45.5,49Zm0-5A1.5,1.5,0,1,1,44,45.5,1.5,1.5,0,0,1,45.5,44Z"></path><path d="M53.5,49A3.5,3.5,0,1,0,50,45.5,3.5,3.5,0,0,0,53.5,49Zm0-5A1.5,1.5,0,1,1,52,45.5,1.5,1.5,0,0,1,53.5,44Z"></path><path d="M59,28H50a1,1,0,0,0,0,2h8v3H47V29a1,1,0,0,0-1-1H45V22a1,1,0,0,0-.57-.89l-6.61-4.33s0,0,0,0a3.31,3.31,0,0,0-.09-2.58l-.12-.25a3.35,3.35,0,0,0-4.43-1.67l-8.63,3.92h0l-1-.67a5.72,5.72,0,0,0-5.14-.6l-5.76,2.16a1.11,1.11,0,0,0-.27.17,7.33,7.33,0,0,0-1.3-.23,7.65,7.65,0,0,0-6.91,3.45A1,1,0,0,0,4,21V36a1,1,0,0,0,2,0V33.59l12.24-6.85h0l13.4-6.1a.27.27,0,0,0,.07.08l5.66,3.71-1.25,4-4.83,4.82v0a1,1,0,0,0-.2.3A1.09,1.09,0,0,0,31,34v6a1,1,0,0,0,1,1h.82A6.49,6.49,0,0,0,37.5,52h16a6.49,6.49,0,0,0,4.68-11H59a1,1,0,0,0,1-1V29A1,1,0,0,0,59,28ZM46,35H58v4H38V38a1,1,0,0,0-2,0v1H33V35h7a1,1,0,0,0,1-1V33a1,1,0,0,0-2,0H34.41l3-3H45v4A1,1,0,0,0,46,35ZM34,14.07a1.36,1.36,0,0,1,1.8.69l.12.25a1.34,1.34,0,0,1,0,1,1.36,1.36,0,0,1-.7.75L18.39,24.48l-1.07-2.82Zm-14.9,2.71a3.68,3.68,0,0,1,3.3.37l-6,2.73a8.82,8.82,0,0,0-1.6-1.49ZM6,31.29v-10A5.6,5.6,0,0,1,10.92,19a5.88,5.88,0,0,1,4.19,2.46l0,.09h0l1.45,3.81ZM33.77,19.67l2.31-1.05a2.87,2.87,0,0,0,.48-.28L43,22.57V28H38.36L40,22.67a1,1,0,0,0-.65-1.25,1,1,0,0,0-1.26.66l-.11.36ZM58,45.5A4.51,4.51,0,0,1,53.5,50h-16a4.5,4.5,0,0,1,0-9h16A4.51,4.51,0,0,1,58,45.5Z"></path></svg></g></svg>