<svg xmlns="http://www.w3.org/2000/svg" xmlns:xlink="http://www.w3.org/1999/xlink" width="100" height="100" viewBox="0 0 100 100"><circle stroke="none" fill="#ffffff" r="48%" cx="50%" cy="50%"></circle><g transform="translate(50 50) scale(0.69 0.69) rotate(0) translate(-50 -50)" style="fill:#002d73"><svg fill="#002d73" xmlns="http://www.w3.org/2000/svg" xmlns:xlink="http://www.w3.org/1999/xlink" version="1.1" x="0px" y="0px" viewBox="0 0 100 100" style="enable-background:new 0 0 100 100;" xml:space="preserve"><path d="M89,27h-8.0348511c-0.3563232-4.77771-4.7369385-8.5688477-10.0847778-8.5688477  c-1.4648438,0-2.9057617,0.2905273-4.2299805,0.8466797C64.8300781,13.8339844,59.2241211,10,52.8339844,10  c-5.059082,0-9.6801758,2.3681641-12.2998047,6.2407227c-2.1606445-1.1074219-4.5942383-1.6889648-7.0966797-1.6889648  c-7.7279663,0-14.0386963,5.5308228-14.4025269,12.4482422H11c-0.5522461,0-1,0.4477539-1,1v8.875c0,0.5522461,0.4477539,1,1,1  h1.2458496l3.7418823,29H14c-0.5522461,0-1,0.4477539-1,1v12.3598633c0,0.5522461,0.4477539,1,1,1h6.8253784  C21.0511475,86.104187,25.1116333,90,30.0854492,90s9.0343018-3.895813,9.2600708-8.7651367h21.0447998  C60.6160889,86.104187,64.6765747,90,69.6503906,90c4.9733276,0,9.0338135-3.895813,9.2595825-8.7651367H86  c0.5522461,0,1-0.4477539,1-1V67.875c0-0.5522461-0.4477539-1-1-1h-2.4877319l3.7418823-29H89c0.5522461,0,1-0.4477539,1-1V28  C90,27.4477539,89.5522461,27,89,27z M33.4375,16.5517578c2.4785156,0,4.8745117,0.6508789,6.9287109,1.8818359  c0.2314453,0.1381836,0.5078125,0.1782227,0.7675781,0.109375c0.2597656-0.0678711,0.4814453-0.237793,0.6147461-0.4711914  C43.887207,14.3266602,48.1347656,12,52.8339844,12c5.9243164,0,11.0551758,3.7524414,12.1992188,8.9223633  c0.0688477,0.3100586,0.2807617,0.5688477,0.5708008,0.6977539c0.2919922,0.1293945,0.625,0.1118164,0.9008789-0.0449219  c1.3134766-0.7485352,2.8266602-1.144043,4.3754883-1.144043c4.2389526,0,7.7246094,2.894165,8.0839233,6.5688477H21.0355835  C21.402832,21.1853027,26.8165283,16.5517578,33.4375,16.5517578z M30.0854492,88  c-4.0151367,0-7.2817383-3.2246094-7.2817383-7.1884766s3.2666016-7.1884766,7.2817383-7.1884766  s7.2817383,3.2246094,7.2817383,7.1884766S34.1005859,88,30.0854492,88z M69.6503906,88  c-4.0151367,0-7.2817383-3.2246094-7.2817383-7.1884766s3.2666016-7.1884766,7.2817383-7.1884766  c4.0146484,0,7.28125,3.2246094,7.28125,7.1884766S73.6650391,88,69.6503906,88z M85,79.2348633h-6.2150879  c-0.758606-4.3164673-4.560791-7.6118164-9.1345215-7.6118164c-4.5741577,0-8.3763428,3.2953491-9.1350098,7.6118164H39.220459  c-0.758667-4.3164673-4.5608521-7.6118164-9.1350098-7.6118164s-8.3763428,3.2953491-9.1350098,7.6118164H15V68.875h70V79.2348633z   M81.4958496,66.875H18.0041504l-3.7418823-29h70.9754639L81.4958496,66.875z M88,35.875H12V29h76V35.875z"></path></svg></g></svg>