<svg xmlns="http://www.w3.org/2000/svg" xmlns:xlink="http://www.w3.org/1999/xlink" width="100" height="100" viewBox="0 0 100 100"><circle stroke="none" fill="#ffffff" r="48%" cx="50%" cy="50%"></circle><g transform="translate(50 50) scale(0.69 0.69) rotate(0) translate(-50 -50)" style="fill:#002d73"><svg fill="#002d73" xmlns="http://www.w3.org/2000/svg" xmlns:xlink="http://www.w3.org/1999/xlink" version="1.1" x="0px" y="0px" viewBox="0 0 91 91" style="enable-background:new 0 0 91 91;" xml:space="preserve"><g><path d="M7.5,78.2c0.9,0,1.7-0.8,1.7-1.7V76c0-10.2,7.9-18.6,17.9-19.5v9.2c-5,0.8-8.8,5.1-8.8,10.3v0.5c0,0.9,0.8,1.7,1.7,1.7   s1.7-0.8,1.7-1.7V76c0-3.3,2.3-6.1,5.4-6.9v0.6c0,0.9,0.8,1.7,1.7,1.7s1.7-0.8,1.7-1.7V69h30.6v0.8c0,0.9,0.8,1.7,1.7,1.7   s1.7-0.8,1.7-1.7v-0.4c2.8,0.9,4.9,3.6,4.9,6.7v0.5c0,0.9,0.8,1.7,1.7,1.7s1.7-0.8,1.7-1.7V76c0-5-3.5-9.2-8.2-10.2v-9.2   C74.2,57.7,81.8,66,81.8,76v0.5c0,0.9,0.8,1.7,1.7,1.7s1.7-0.8,1.7-1.7V76c0-11.9-9.1-21.7-20.7-22.8v-0.9c0-0.9-0.8-1.7-1.7-1.7   s-1.7,0.8-1.7,1.7v0.8h-5.9v-2.9c0-0.9-0.8-1.7-1.7-1.7h-2.1V46c4.6-1.6,8.4-4.8,10.7-9.1c2.4-4.6,3-9.8,1.5-14.8s-4.8-9-9.4-11.5   v0c-4.6-2.4-9.8-3-14.8-1.5c-5,1.5-9,4.8-11.5,9.4c-5.1,9.4-1.5,21.2,7.9,26.2c1.2,0.6,2.5,1.1,3.7,1.5v2.2h-2.1   c-0.9,0-1.7,0.8-1.7,1.7v2.9h-5.4v-0.8c0-0.9-0.8-1.7-1.7-1.7s-1.7,0.8-1.7,1.7v0.9C15.2,54,5.8,64,5.8,76v0.5   C5.8,77.4,6.6,78.2,7.5,78.2z M37.5,41.8c-7.8-4.2-10.7-13.9-6.5-21.7c2-3.8,5.4-6.5,9.5-7.8c1.5-0.5,3.1-0.7,4.6-0.7   c2.6,0,5.2,0.6,7.5,1.9v0c3.8,2,6.5,5.4,7.8,9.5c1.2,4.1,0.8,8.4-1.2,12.2c-2,3.8-5.4,6.5-9.5,7.8C45.6,44.2,41.3,43.8,37.5,41.8z    M48,46.8v1.7h-5V47c0.7,0.1,1.4,0.1,2,0.1C46,47.1,47,47,48,46.8z M39.2,51.9h2.1h8.4h2.1v1H39.2V51.9z M30.4,56.5h30.6v9.1H30.4   V56.5z"></path><circle cx="34.1" cy="21.4" r="1.7"></circle><circle cx="38.9" cy="38.8" r="1.7"></circle><circle cx="38.8" cy="16.7" r="1.7"></circle><circle cx="51.2" cy="16.6" r="1.7"></circle><circle cx="32.3" cy="27.9" r="1.7"></circle><circle cx="34.1" cy="34.2" r="1.7"></circle><circle cx="51.6" cy="38.7" r="1.7"></circle><circle cx="56.2" cy="33.9" r="1.7"></circle><circle cx="57.8" cy="27.5" r="1.7"></circle><circle cx="45.3" cy="40.4" r="1.7"></circle><circle cx="55.9" cy="21.2" r="1.7"></circle><path d="M46.5,32.5c1.3-0.4,2.3-1.2,2.9-2.4c1.3-2.4,0.4-5.4-2-6.6v0c-0.2-0.1-0.4-0.2-0.6-0.3v-8c0-0.9-0.8-1.7-1.7-1.7   s-1.7,0.8-1.7,1.7v8c-1.1,0.4-2,1.2-2.6,2.3c-0.6,1.2-0.8,2.5-0.4,3.7c0.4,1.3,1.2,2.3,2.4,2.9c0.7,0.4,1.5,0.6,2.3,0.6   C45.5,32.7,46,32.6,46.5,32.5z M43.6,28.2c-0.1-0.4-0.1-0.8,0.1-1.2c0.3-0.5,0.8-0.8,1.4-0.8c0.2,0,0.5,0.1,0.7,0.2   c0.7,0.4,1,1.3,0.6,2.1c-0.2,0.4-0.5,0.6-0.9,0.7c-0.4,0.1-0.8,0.1-1.2-0.1C44,28.9,43.7,28.6,43.6,28.2z"></path></g></svg></g></svg>