<svg xmlns="http://www.w3.org/2000/svg" xmlns:xlink="http://www.w3.org/1999/xlink" width="100" height="100" viewBox="0 0 100 100"><circle stroke="none" fill="#ffffff" r="48%" cx="50%" cy="50%"></circle><g transform="translate(50 50) scale(0.69 0.69) rotate(0) translate(-50 -50)" style="fill:#002d73"><svg fill="#002d73" xmlns:x="http://ns.adobe.com/Extensibility/1.0/" xmlns:i="http://ns.adobe.com/AdobeIllustrator/10.0/" xmlns:graph="http://ns.adobe.com/Graphs/1.0/" xmlns="http://www.w3.org/2000/svg" xmlns:xlink="http://www.w3.org/1999/xlink" version="1.1" x="0px" y="0px" viewBox="0 0 63.4 85.7" style="enable-background:new 0 0 63.4 85.7;" xml:space="preserve"><g><g i:extraneous="self"><g><path d="M57.8,11.6V-0.4v0H7.2c-3.6,0-6.5,2.9-6.5,6.5v60.8c0,3.5,2.8,6.4,6.4,6.5v5.4v6.5h6.5h27.3h16.7c3.6,0,6.5-2.9,6.5-6.5     V18C64.2,14.5,61.3,11.6,57.8,11.6z M7.1,12.9V18v53.2c-2.5-0.1-4.5-2.1-4.5-4.7V6.5c0-2.6,2.1-4.7,4.7-4.7h2.2v0h39L7.1,11.6     V12.9z M55.6,2.4l0,9.2H40.9H16.8L55.6,2.4z M62.3,78.5c0,2.6-2.1,4.7-4.7,4.7H13.7c0,0,0,0,0,0H9v-4.7V18.4v-4.7h46.3v0h2.2     c2.6,0,4.7,2.1,4.7,4.7V78.5z"></path><path d="M51.6,55.4H20.1c-0.5,0-0.9,0.4-0.9,0.9c0,0.5,0.4,0.9,0.9,0.9h31.4c0.5,0,0.9-0.4,0.9-0.9C52.4,55.8,52,55.4,51.6,55.4z     "></path><path d="M51.6,60.7H20.1c-0.5,0-0.9,0.4-0.9,0.9s0.4,0.9,0.9,0.9h31.4c0.5,0,0.9-0.4,0.9-0.9S52,60.7,51.6,60.7z"></path><path d="M31.6,65.9H20.1c-0.5,0-0.9,0.4-0.9,0.9s0.4,0.9,0.9,0.9h11.5c0.5,0,0.9-0.4,0.9-0.9S32.1,65.9,31.6,65.9z"></path><path d="M31.6,71.2H20.1c-0.5,0-0.9,0.4-0.9,0.9c0,0.5,0.4,0.9,0.9,0.9h11.5c0.5,0,0.9-0.4,0.9-0.9     C32.5,71.6,32.1,71.2,31.6,71.2z"></path><path d="M51.6,44.4H20.1c-0.5,0-0.9,0.4-0.9,0.9s0.4,0.9,0.9,0.9h31.4c0.5,0,0.9-0.4,0.9-0.9S52,44.4,51.6,44.4z"></path><path d="M51.6,49.7H20.1c-0.5,0-0.9,0.4-0.9,0.9c0,0.5,0.4,0.9,0.9,0.9h31.4c0.5,0,0.9-0.4,0.9-0.9C52.4,50.1,52,49.7,51.6,49.7z     "></path><path d="M19.1,40.8h33.3V23.9H19.1V40.8z M20.2,25.2h31v14.4h-31V25.2z"></path><path d="M36.1,74h16.4v-9H36.1V74z M37.2,66.2h14v6.6h-14V66.2z"></path></g></g></g></svg></g></svg>