<svg xmlns="http://www.w3.org/2000/svg" xmlns:xlink="http://www.w3.org/1999/xlink" width="100" height="100" viewBox="0 0 100 100"><circle stroke="none" fill="#ffffff" r="48%" cx="50%" cy="50%"></circle><g transform="translate(50 50) scale(0.69 0.69) rotate(0) translate(-50 -50)" style="fill:#002d73"><svg fill="#002d73" xmlns="http://www.w3.org/2000/svg" data-name="Layer 2" viewBox="0 0 100 100" x="0px" y="0px"><title>Engineering</title><path d="M39.21,76.83h6v-6h-6Zm2-4h2v2h-2Zm-9.6-2h-6v6h6Zm-2,4h-2v-2h2Zm9.6-7.25h6v-6h-6Zm2-4h2v2h-2Zm-9.6-2h-6v6h6Zm-2,4h-2v-2h2ZM45,43.08H39v6h6Zm-2,4H41v-2h2Zm2.17-13.25h-6v6h6Zm-2,4h-2v-2h2Zm-4,20.5h6v-6h-6Zm2-4h2v2h-2Zm-9.6-2h-6v6h6Zm-2,4h-2v-2h2Zm49.7-10.89v9.12a1,1,0,0,1-1,1H74A25.4,25.4,0,0,1,70.45,64l3.07,3.07a1,1,0,0,1,0,1.42L67.07,75a1,1,0,0,1-1.41,0L62.59,71.9a25.67,25.67,0,0,1-8.47,3.5v4.35a1,1,0,0,1-1,1H51.56v-2h.56V74.58a1,1,0,0,1,.82-1,23.7,23.7,0,0,0,9.21-3.81,1,1,0,0,1,1.27.11l3,2.95,5-5-2.94-2.94a1,1,0,0,1-.12-1.28,23.4,23.4,0,0,0,3.81-9.21,1,1,0,0,1,1-.82h4.17V46.44H73.14a1,1,0,0,1-1-.82,23.36,23.36,0,0,0-3.81-9.2,1,1,0,0,1,.12-1.28l2.94-3-5-5-3,2.95a1,1,0,0,1-1.27.11,23.59,23.59,0,0,0-9.21-3.82,1,1,0,0,1-.82-1V21.25h-.56v-2h1.56a1,1,0,0,1,1,1V24.6a25.31,25.31,0,0,1,8.47,3.51L65.66,25a1,1,0,0,1,.71-.29h0a1,1,0,0,1,.7.29l6.45,6.45a1,1,0,0,1,0,1.42L70.45,36A25.35,25.35,0,0,1,74,44.44h4.35A1,1,0,0,1,79.31,45.44ZM53.38,67.86a18.47,18.47,0,0,0,10-6.86,17.61,17.61,0,0,0,1.17-1.78A18.29,18.29,0,0,0,66.07,56c.13-.38.25-.77.35-1.16a18.47,18.47,0,0,0,0-9.64,19,19,0,0,0-.86-2.47,19.33,19.33,0,0,0-1-1.93A18.39,18.39,0,0,0,57.78,34a18.6,18.6,0,0,0-4.4-1.84c-.56-.15-1.12-.26-1.69-.36l-.13,0v2c.43.08.87.16,1.29.27s.85.26,1.27.41V45.84H52.4v8.94h3.14v1.66h1a3.3,3.3,0,0,1-.2.92A3.38,3.38,0,0,1,52,59.29a3.48,3.48,0,0,1-.43-.22v.63a3.23,3.23,0,0,0,1.36,1,3.37,3.37,0,0,0,4.37-1.93,3.26,3.26,0,0,0,0-2.34h.89V54.78h3.14V45.84h-1.4V38.07a16.66,16.66,0,0,1,2.92,3.71,15.33,15.33,0,0,1,.86,1.72,17.87,17.87,0,0,1,.77,2.2,16.5,16.5,0,0,1,0,8.6c-.11.41-.24.81-.38,1.21a15.9,15.9,0,0,1-1.25,2.71,16.55,16.55,0,0,1-6.09,6.09,15.88,15.88,0,0,1-3.91,1.62c-.43.12-.87.2-1.3.28v2l.13,0C52.26,68.13,52.82,68,53.38,67.86Zm2.74-32.52c.22.12.44.23.66.36.4.23.78.48,1.16.74v9.4H56.12Zm3.22,17.44H54.4V47.84h4.94ZM48.5,19.26a1.31,1.31,0,0,0-.27.06l-.09,0a1.59,1.59,0,0,0-.27.18l-13,12.25a1,1,0,0,0-.31.73V49H20.69V80.75H49.56V19.25H48.5Zm-14,59.49H22.69V51H34.53Zm13-46.25V78.75h-11V32.93l11-10.37Z"></path></svg></g></svg>