<svg xmlns="http://www.w3.org/2000/svg" xmlns:xlink="http://www.w3.org/1999/xlink" width="100" height="100" viewBox="0 0 100 100"><circle stroke="none" fill="#ffffff" r="48%" cx="50%" cy="50%"></circle><g transform="translate(50 50) scale(0.69 0.69) rotate(0) translate(-50 -50)" style="fill:#002d73"><svg fill="#002d73" xmlns="http://www.w3.org/2000/svg" xmlns:xlink="http://www.w3.org/1999/xlink" version="1.1" x="0px" y="0px" viewBox="-346 256 100 100" enable-background="new -346 256 100 100" xml:space="preserve"><g><path d="M-327.794,319.122c0.815,0,1.482-0.662,1.482-1.484c0-0.815-0.667-1.479-1.482-1.479c-0.82,0-1.484,0.663-1.484,1.479   C-329.278,318.46-328.614,319.122-327.794,319.122"></path><path d="M-337.205,325.218c0.819,0,1.483-0.662,1.483-1.48c0-0.819-0.664-1.48-1.483-1.48c-0.82,0-1.482,0.661-1.482,1.48   C-338.687,324.556-338.024,325.218-337.205,325.218"></path><path d="M-332.855,328.836c0.819,0,1.483-0.66,1.483-1.479c0-0.819-0.664-1.481-1.483-1.481c-0.815,0-1.48,0.662-1.48,1.481   C-334.335,328.176-333.67,328.836-332.855,328.836"></path><path d="M-337.033,331.316c0.819,0,1.484-0.661,1.484-1.482c0-0.815-0.665-1.479-1.484-1.479c-0.816,0-1.479,0.663-1.479,1.479   C-338.512,330.655-337.849,331.316-337.033,331.316"></path><path d="M-344.348,324.696c0.818,0,1.482-0.662,1.482-1.484c0-0.814-0.665-1.478-1.482-1.478c-0.817,0-1.482,0.663-1.482,1.478   C-345.831,324.034-345.166,324.696-344.348,324.696"></path><path d="M-327.942,344.88c0.812,0,1.48-0.66,1.48-1.482c0-0.816-0.668-1.479-1.48-1.479c-0.819,0-1.484,0.662-1.484,1.479   C-329.426,344.22-328.762,344.88-327.942,344.88"></path><path d="M-327.97,326.788c0.816,0,1.48-0.663,1.48-1.484c0-0.815-0.665-1.477-1.48-1.477c-0.815,0-1.483,0.661-1.483,1.477   C-329.453,326.125-328.785,326.788-327.97,326.788"></path><path d="M-304.966,336.42c0.816,0,1.48-0.661,1.48-1.483c0-0.815-0.665-1.478-1.48-1.478c-0.815,0-1.484,0.662-1.484,1.478   C-306.45,335.759-305.782,336.42-304.966,336.42"></path><path d="M-299.982,346.628c0.815,0,1.48-0.662,1.48-1.483c0-0.816-0.665-1.478-1.48-1.478s-1.484,0.661-1.484,1.478   C-301.466,345.966-300.798,346.628-299.982,346.628"></path><path d="M-299.503,336.42c0.816,0,1.48-0.661,1.48-1.483c0-0.815-0.665-1.478-1.48-1.478c-0.815,0-1.484,0.662-1.484,1.478   C-300.987,335.759-300.318,336.42-299.503,336.42"></path><path d="M-301.803,331.819c0.815,0,1.48-0.662,1.48-1.483c0-0.815-0.665-1.477-1.48-1.477c-0.816,0-1.484,0.661-1.484,1.477   C-303.287,331.157-302.619,331.819-301.803,331.819"></path><path d="M-294.04,333.401c0.816,0,1.48-0.662,1.48-1.484c0-0.815-0.664-1.478-1.48-1.478c-0.815,0-1.483,0.662-1.483,1.478   C-295.523,332.739-294.855,333.401-294.04,333.401"></path><path d="M-331.456,323.477c0.82,0,1.484-0.662,1.484-1.483c0-0.815-0.664-1.478-1.484-1.478c-0.818,0-1.482,0.662-1.482,1.478   C-332.938,322.814-332.274,323.477-331.456,323.477"></path><path d="M-343.214,348.915c-0.154,0-0.311-0.026-0.465-0.08c-0.726-0.257-1.107-1.054-0.85-1.779c0.12-0.34,1.242-3.348,3.7-4.462   c1.807-0.817,3.523-0.9,5.104-0.245c2.831,1.174,4.045,4.345,4.096,4.479c0.27,0.721-0.096,1.525-0.816,1.794   c-0.724,0.271-1.525-0.094-1.795-0.815c-0.006-0.017-0.857-2.185-2.566-2.886c-0.848-0.348-1.787-0.278-2.872,0.214   c-1.181,0.534-2.021,2.28-2.222,2.85C-342.103,348.556-342.64,348.915-343.214,348.915L-343.214,348.915z"></path></g><g><path d="M-266.604,346.596c-2.495,0-4.784-1.638-6.438-4.501c-1.652,2.863-3.941,4.501-6.438,4.501s-4.786-1.638-6.439-4.501   c-1.654,2.863-3.942,4.501-6.439,4.501c-0.763,0-1.381-0.618-1.381-1.382c0-0.762,0.618-1.38,1.381-1.38   c1.985,0,3.952-2.122,5.135-5.539c0.192-0.556,0.716-0.93,1.305-0.93s1.111,0.374,1.305,0.93c1.182,3.417,3.148,5.539,5.135,5.539   c1.984,0,3.952-2.122,5.134-5.539c0.193-0.556,0.717-0.93,1.305-0.93s1.112,0.374,1.305,0.93c1.184,3.417,3.149,5.539,5.134,5.539   c1.986,0,3.954-2.122,5.136-5.539c0.193-0.556,0.716-0.93,1.306-0.93c0.587,0,1.112,0.374,1.303,0.93   c1.116,3.224,2.975,5.341,4.853,5.524c0.759,0.074,1.312,0.749,1.238,1.509c-0.075,0.758-0.747,1.308-1.509,1.238   c-2.306-0.225-4.364-1.813-5.889-4.467C-261.819,344.961-264.108,346.596-266.604,346.596L-266.604,346.596z"></path><g><path d="M-290.597,275.185h-5.815v27.717c-5.251,0.991-13.895,3.981-21.249,12.963c-3.765,4.599-6.015,11.68-6.974,15.257    c-0.91-0.551-2.123-1.024-3.6-1.024c-3.098,0-4.651,1.46-4.817,1.627c-0.545,0.544-0.546,1.427-0.002,1.972    c0.545,0.546,1.427,0.544,1.972,0.002c0.008-0.009,0.934-0.813,2.848-0.813c2.035,0,3.268,1.53,3.313,1.587    c0.267,0.349,0.679,0.547,1.107,0.547c0.102,0,0.205-0.011,0.308-0.034c0.531-0.12,0.944-0.539,1.057-1.071    c0.022-0.105,2.281-10.582,6.947-16.282c6.517-7.958,14.247-10.816,19.091-11.845v3.207c-3.981,0.888-9.71,3.415-15.325,10.326    c-5.078,6.252-7.549,15.583-8.683,21.631c-1.313-2.503-3.465-4.855-6.912-4.855c-0.03,0-0.062,0-0.093,0.002    c-2.16,0.023-4.087,1.152-5.352,2.127c-1.197-2.106-3.481-4.315-7-3.754c-5.256,0.841-6.164,5.104-6.2,5.284    c-0.15,0.756,0.34,1.489,1.095,1.64c0.754,0.156,1.489-0.34,1.64-1.094c0.005-0.025,0.543-2.538,3.905-3.076    c3.408-0.557,4.664,3.546,4.714,3.715c0.141,0.487,0.535,0.859,1.029,0.972c0.496,0.116,1.01-0.052,1.349-0.429    c0.023-0.025,2.372-2.568,4.852-2.598c0.017,0,0.035,0,0.052,0c4.802,0,6.05,8.245,6.062,8.33    c0.099,0.687,0.689,1.193,1.379,1.193c0.013,0,0.026,0,0.039,0c0.707-0.019,1.288-0.564,1.351-1.268    c0.016-0.171,1.594-17.021,8.938-26.062c2.938-3.616,5.871-5.896,8.494-7.34c-2.473,2.054-4.568,4.538-6.24,7.474    c-5.841,10.257-4.931,26.425-4.89,27.107c0.038,0.619,0.502,1.127,1.116,1.222c0.067,0.011,0.133,0.015,0.2,0.015    c0.539,0,1.033-0.331,1.23-0.848c0.019-0.048,1.897-4.876,5.403-6.628c3.472-1.735,6.76-0.791,6.787-0.782    c0.693,0.209,1.433-0.177,1.647-0.871c0.215-0.695-0.177-1.432-0.872-1.646c-0.174-0.055-4.293-1.279-8.74,0.943    c-1.735,0.867-3.122,2.252-4.173,3.63c0.151-5.493,0.991-14.533,4.582-20.839c2.173-3.818,5.031-6.741,8.616-8.882v7.437h5.815    v-4.734h0.028v-36.532h-0.028V275.185z"></path><polygon points="-249.633,259.083 -249.633,279.803 -288.303,279.803 -288.303,316.335 -249.633,316.335 -249.633,354.999     -246,354.999 -246,259.083   "></polygon></g></g></svg></g></svg>