<svg xmlns="http://www.w3.org/2000/svg" xmlns:xlink="http://www.w3.org/1999/xlink" width="100" height="100" viewBox="0 0 100 100"><circle stroke="none" fill="#ffffff" r="48%" cx="50%" cy="50%"></circle><g transform="translate(50 50) scale(0.69 0.69) rotate(0) translate(-50 -50)" style="fill:#002d73"><svg fill="#002d73" xmlns="http://www.w3.org/2000/svg" xmlns:xlink="http://www.w3.org/1999/xlink" version="1.1" x="0px" y="0px" viewBox="0 0 100 100" enable-background="new 0 0 100 100" xml:space="preserve"><g><path d="M72.127,96.322l3.364-0.547L65.033,31.288h-7.762v-0.183c0-1.62-1.313-2.933-2.934-2.933h-8.676   c-1.619,0-2.934,1.313-2.934,2.933v0.183h-7.762L24.51,95.775l3.364,0.547l2.128-13.123l15.227-6.48v18.309h9.544V76.717   l15.226,6.482L72.127,96.322z M50,70.982l-2.727-1.16V53.273l2.75-1.17l2.703,1.15v16.568L50,70.982z M52.727,34.696v12.552   l-2.703,1.151l-2.75-1.171V34.696H52.727z M54.772,50.082l9.22-3.924l1.426,8.793L54.772,50.42V50.082z M45.229,50.439   L34.58,54.971l1.433-8.831l9.216,3.923V50.439z M33.936,58.951l11.293-4.807v14.807l-12.082-5.143L33.936,58.951z M54.772,54.125   l11.291,4.807l0.791,4.877l-12.082,5.143V54.125z M63.431,42.692l-8.658,3.685V34.696h7.36L63.431,42.692z M45.229,34.696v11.662   l-8.654-3.684l1.293-7.978H45.229z M30.648,79.219l1.937-11.945l12.644,5.383v0.357L30.648,79.219z M52.727,93.045h-5.453V75.848   L50,74.688l2.727,1.16V93.045z M54.772,73.014v-0.357l12.645-5.383l1.936,11.945L54.772,73.014z"></path><path d="M48.64,26.809h0.657l0.061-1.36c-0.074-0.007-1.82-0.192-2.582-2.097c-0.422-1.052-0.162-1.755,0.167-2.645   c0.138-0.375,0.285-0.773,0.376-1.21c0.139,0.18,0.267,0.387,0.369,0.622l0.494,1.154l0.697-1.044   c0.119-0.176,0.697-1.101,0.524-1.979c-0.079-0.395,0.122-1.007,0.597-1.827c0.476,0.82,0.677,1.433,0.599,1.828   c-0.174,0.877,0.405,1.802,0.522,1.978l0.698,1.044l0.495-1.154c0.102-0.235,0.229-0.443,0.367-0.623   c0.093,0.438,0.238,0.835,0.377,1.21c0.33,0.89,0.589,1.593,0.167,2.646c-0.761,1.905-2.507,2.089-2.576,2.096l0.054,1.361h0.686   l0.027-0.002c0.191-0.015,4.736-0.431,6.69-5.312c1.101-2.75,0.353-4.773-0.306-6.558c-0.515-1.395-1.001-2.712-0.681-4.358   l0.271-1.396l-1.259,0.663c-0.08,0.042-1.668,0.894-2.838,2.654c-0.15-0.414-0.247-0.866-0.174-1.236   c0.325-1.631-0.464-3.719-2.559-6.768L50,3.678l-0.561,0.818c-2.094,3.048-2.884,5.135-2.561,6.768   c0.074,0.371-0.022,0.822-0.172,1.236c-1.17-1.76-2.758-2.611-2.838-2.654L42.61,9.183l0.271,1.396   c0.319,1.646-0.166,2.963-0.681,4.358c-0.66,1.785-1.406,3.808-0.305,6.559C43.848,26.376,48.394,26.792,48.64,26.809z    M43.479,15.409c0.408-1.104,0.825-2.233,0.867-3.55c0.599,0.528,1.305,1.318,1.76,2.38l0.494,1.155l0.699-1.044   c0.126-0.187,1.213-1.869,0.918-3.353C48.004,9.922,48.588,8.32,50,6.113c1.414,2.207,1.999,3.809,1.785,4.884   c-0.295,1.484,0.793,3.166,0.918,3.353l0.698,1.044l0.494-1.155c0.452-1.054,1.16-1.846,1.76-2.376   c0.044,1.315,0.461,2.444,0.866,3.546c0.63,1.706,1.224,3.316,0.319,5.58c-0.635,1.586-1.59,2.611-2.529,3.272   c0.064-0.128,0.124-0.262,0.181-0.403c0.616-1.538,0.207-2.647-0.154-3.624c-0.26-0.705-0.484-1.313-0.337-2.073l0.271-1.396   l-1.259,0.662c-0.034,0.018-0.523,0.281-1.042,0.811c0.063-0.887-0.383-1.974-1.409-3.468L50,13.953l-0.561,0.818   c-1.025,1.494-1.471,2.581-1.411,3.468c-0.517-0.53-1.007-0.792-1.04-0.811l-1.26-0.662l0.272,1.396   c0.147,0.76-0.077,1.368-0.338,2.073c-0.361,0.978-0.77,2.086-0.153,3.624c0.055,0.141,0.115,0.274,0.179,0.402   c-0.938-0.661-1.893-1.686-2.527-3.272C42.256,18.725,42.851,17.114,43.479,15.409z"></path></g></svg></g></svg>