<svg xmlns="http://www.w3.org/2000/svg" xmlns:xlink="http://www.w3.org/1999/xlink" width="100" height="100" viewBox="0 0 100 100"><circle stroke="none" fill="#ffffff" r="48%" cx="50%" cy="50%"></circle><g transform="translate(50 50) scale(0.69 0.69) rotate(0) translate(-50 -50)" style="fill:#002d73"><svg fill="#002d73" xmlns:x="http://ns.adobe.com/Extensibility/1.0/" xmlns:i="http://ns.adobe.com/AdobeIllustrator/10.0/" xmlns:graph="http://ns.adobe.com/Graphs/1.0/" xmlns="http://www.w3.org/2000/svg" xmlns:xlink="http://www.w3.org/1999/xlink" version="1.1" x="0px" y="0px" viewBox="0 0 100 100" style="enable-background:new 0 0 100 100;" xml:space="preserve"><g><g i:extraneous="self"><g><path d="M5273.1,2400.1v-2c0-2.8-5-4-9.7-4s-9.7,1.3-9.7,4v2c0,1.8,0.7,3.6,2,4.9l5,4.9c0.3,0.3,0.4,0.6,0.4,1v6.4     c0,0.4,0.2,0.7,0.6,0.8l2.9,0.9c0.5,0.1,1-0.2,1-0.8v-7.2c0-0.4,0.2-0.7,0.4-1l5.1-5C5272.4,2403.7,5273.1,2401.9,5273.1,2400.1z      M5263.4,2400c-4.8,0-7.4-1.3-7.5-1.8v0c0.1-0.5,2.7-1.8,7.5-1.8c4.8,0,7.3,1.3,7.5,1.8C5270.7,2398.7,5268.2,2400,5263.4,2400z"></path><path d="M5268.4,2410.3c-0.6,0-1,0.4-1,1c0,0.6,0.4,1,1,1h4.3c0.6,0,1-0.4,1-1c0-0.6-0.4-1-1-1H5268.4z"></path><path d="M5272.7,2413.7h-4.3c-0.6,0-1,0.4-1,1c0,0.6,0.4,1,1,1h4.3c0.6,0,1-0.4,1-1C5273.7,2414.1,5273.3,2413.7,5272.7,2413.7z"></path><path d="M5272.7,2417h-4.3c-0.6,0-1,0.4-1,1c0,0.6,0.4,1,1,1h4.3c0.6,0,1-0.4,1-1C5273.7,2417.5,5273.3,2417,5272.7,2417z"></path></g><g><path d="M50,35.9c-7.8,0-14.1,6.3-14.1,14.1S42.2,64.1,50,64.1S64.1,57.8,64.1,50S57.8,35.9,50,35.9z M50,57.9     c-4.3,0-7.8-3.5-7.8-7.9s3.5-7.9,7.8-7.9s7.8,3.5,7.8,7.9S54.3,57.9,50,57.9z"></path><path d="M16.6,35.9C8.8,35.9,2.5,42.2,2.5,50s6.3,14.1,14.1,14.1S30.7,57.8,30.7,50S24.4,35.9,16.6,35.9z M16.6,57.9     c-4.3,0-7.8-3.5-7.8-7.9s3.5-7.9,7.8-7.9s7.8,3.5,7.8,7.9S20.9,57.9,16.6,57.9z"></path><path d="M83.4,35.9c-7.8,0-14.1,6.3-14.1,14.1s6.3,14.1,14.1,14.1c7.8,0,14.1-6.3,14.1-14.1S91.2,35.9,83.4,35.9z M83.4,57.9     c-4.3,0-7.9-3.5-7.9-7.9s3.5-7.9,7.9-7.9c4.3,0,7.8,3.5,7.8,7.9S87.7,57.9,83.4,57.9z"></path></g></g></g></svg></g></svg>