<svg xmlns="http://www.w3.org/2000/svg" xmlns:xlink="http://www.w3.org/1999/xlink" width="100" height="100" viewBox="0 0 100 100"><circle stroke="none" fill="#ffffff" r="48%" cx="50%" cy="50%"></circle><g transform="translate(50 50) scale(0.69 0.69) rotate(0) translate(-50 -50)" style="fill:#002d73"><svg fill="#002d73" xmlns="http://www.w3.org/2000/svg" xmlns:xlink="http://www.w3.org/1999/xlink" version="1.1" x="0px" y="0px" viewBox="0 0 100 100" enable-background="new 0 0 100 100" xml:space="preserve"><path d="M77,29H23c-1.7,0-3,1.3-3,3v36c0,1.7,1.3,3,3,3h54c1.7,0,3-1.3,3-3V32C80,30.3,78.7,29,77,29z M78,68c0,0.6-0.4,1-1,1H23  c-0.6,0-1-0.4-1-1V32c0-0.6,0.4-1,1-1h54c0.6,0,1,0.4,1,1V68z M48,46.5h-0.5l0.4-0.4c0.403-0.403,0.409-0.992,0-1.4l-3.5-3.5  c-0.4-0.4-1-0.4-1.4,0l-0.4,0.4V41c0-0.6-0.4-1-1-1h-5c-0.6,0-1,0.4-1,1v0.5l-0.4-0.4c-0.399-0.399-0.989-0.412-1.4,0l-3.5,3.5  c-0.397,0.397-0.412,0.987,0,1.4l0.4,0.4H30c-0.6,0-1,0.4-1,1v5c0,0.6,0.4,1,1,1h0.5L30.1,53.8c-0.399,0.399-0.412,0.989,0,1.4  l3.5,3.5c0.4,0.399,1,0.399,1.4,0l0.4-0.4V59c0,0.6,0.4,1,1,1h5c0.6,0,1-0.4,1-1v-0.5l0.4,0.4c0.406,0.403,0.992,0.407,1.4,0  l3.5-3.5c0.404-0.405,0.406-0.993,0-1.4l-0.4-0.4H48c0.6,0,1-0.399,1-1v-5C49,46.9,48.6,46.5,48,46.5z M47,51.5h-2  c-0.954,0-1.303,1.098-0.7,1.7l1.4,1.399L43.6,56.7l-1.4-1.4c-0.69-0.688-1.7-0.084-1.7,0.7v2h-3v-2c0-0.944-1.092-1.307-1.7-0.7  l-1.4,1.4L32.3,54.6l1.4-1.399c0.689-0.689,0.083-1.7-0.7-1.7h-2v-3h2c0.942,0,1.308-1.091,0.7-1.7l-1.4-1.4l2.1-2.1l1.4,1.4  c0.69,0.688,1.7,0.084,1.7-0.7v-2h3v2c0,0.942,1.091,1.308,1.7,0.7l1.4-1.4l2.1,2.1l-1.4,1.4c-0.688,0.69-0.084,1.7,0.7,1.7h2V51.5z   M39,46.5c-1.9,0-3.5,1.6-3.5,3.5c0,1.9,1.6,3.5,3.5,3.5s3.5-1.6,3.5-3.5C42.5,48.1,40.9,46.5,39,46.5z M39,51.5  c-0.8,0-1.5-0.7-1.5-1.5s0.7-1.5,1.5-1.5s1.5,0.7,1.5,1.5S39.8,51.5,39,51.5z M53,49h17v2H53V49z M53,43h17v2H53V43z M53,55h17v2H53  V55z"></path></svg></g></svg>