<svg xmlns="http://www.w3.org/2000/svg" xmlns:xlink="http://www.w3.org/1999/xlink" width="100" height="100" viewBox="0 0 100 100"><circle stroke="none" fill="#ffffff" r="48%" cx="50%" cy="50%"></circle><g transform="translate(50 50) scale(0.69 0.69) rotate(0) translate(-50 -50)" style="fill:#002d73"><svg fill="#002d73" xmlns="http://www.w3.org/2000/svg" xmlns:xlink="http://www.w3.org/1999/xlink" version="1.1" x="0px" y="0px" viewBox="0 0 100 100" enable-background="new 0 0 100 100" xml:space="preserve"><path d="M23.306,62.564c-0.001-0.008-0.01-0.012-0.012-0.02c-0.002-0.01,0.003-0.018,0-0.025l-0.549-1.35  c-0.002-0.004-0.007-0.006-0.009-0.01c-0.003-0.004,0-0.01-0.002-0.014l-0.83-1.49c-0.002-0.004-0.008-0.004-0.01-0.008  c-0.003-0.004,0-0.008-0.003-0.012l-1.082-1.49c-0.002-0.002-0.007-0.002-0.009-0.006c-0.003-0.002-0.001-0.006-0.004-0.01  l-1.266-1.42c-0.003-0.004-0.007-0.002-0.01-0.006c-0.002-0.002-0.001-0.006-0.004-0.008l-1.336-1.238  c-0.003-0.002-0.008-0.002-0.012-0.004c-0.004-0.004-0.003-0.008-0.007-0.012l-1.336-0.971c-0.004-0.002-0.01,0-0.014-0.002  c-0.005-0.004-0.005-0.01-0.01-0.012l-1.238-0.66c-0.008-0.004-0.017,0-0.023-0.002c-0.008-0.004-0.011-0.014-0.02-0.016  L14.454,53.5c-0.015-0.004-0.027,0.006-0.041,0.006c-0.015,0-0.025-0.012-0.041-0.01l-0.787,0.127  c-0.021,0.002-0.032,0.021-0.05,0.029c-0.021,0.01-0.044,0.01-0.061,0.025l-0.492,0.492c-0.016,0.016-0.015,0.039-0.024,0.059  c-0.009,0.018-0.027,0.027-0.031,0.049l-0.155,0.857c-0.002,0.014,0.008,0.023,0.008,0.035s-0.01,0.02-0.008,0.031l0.183,1.139  c0.001,0.01,0.01,0.014,0.012,0.021s-0.003,0.016,0,0.023l0.549,1.35c0.002,0.004,0.008,0.008,0.01,0.012s0,0.008,0.002,0.012  l0.844,1.477c0.002,0.004,0.006,0.002,0.008,0.006s0,0.008,0.003,0.012l1.068,1.504c0.002,0.004,0.007,0.002,0.01,0.006  s0.001,0.008,0.004,0.012l1.266,1.42c0.003,0.004,0.007,0.002,0.01,0.004c0.002,0.004,0.001,0.008,0.004,0.01l1.336,1.238  c0.003,0.002,0.009,0.002,0.012,0.004c0.004,0.004,0.003,0.008,0.007,0.012l1.336,0.969c0.005,0.004,0.011,0.002,0.016,0.006  c0.004,0.002,0.004,0.008,0.008,0.01l1.252,0.66c0.011,0.006,0.021,0.006,0.032,0.008c0.005,0.002,0.007,0.01,0.013,0.01  l1.055,0.268c0.017,0.004,0.032,0.006,0.049,0.006c0.009,0,0.019,0,0.028-0.002l0.787-0.111c0.022-0.004,0.035-0.023,0.055-0.033  s0.042-0.008,0.059-0.023l0.507-0.508c0.011-0.01,0.009-0.027,0.017-0.039c0.015-0.021,0.034-0.041,0.039-0.068l0.141-0.844  c0.002-0.012-0.008-0.021-0.008-0.033s0.01-0.02,0.008-0.031L23.306,62.564z M22.964,64.48l-0.415,0.416l-0.681,0.096l-0.995-0.252  l-1.218-0.643l-1.316-0.955l-1.316-1.221l-1.252-1.404l-1.057-1.49L13.88,57.57l-0.535-1.318l-0.173-1.078l0.138-0.764l0.403-0.404  l0.68-0.107l1.005,0.264l1.206,0.643l1.317,0.957l1.316,1.221l1.254,1.406l1.068,1.473l0.819,1.471l0.536,1.32l0.174,1.08  L22.964,64.48z"></path><path d="M72.968,43.649c0.125-0.109,0.223-0.248,0.281-0.404l0.872-2.32c0.05-0.134,0.071-0.276,0.062-0.419l-0.225-3.332  c-0.006-0.082-0.021-0.164-0.048-0.243l-1.336-4.093c-0.017-0.051-0.037-0.1-0.062-0.147l-2.363-4.584  c-0.017-0.033-0.036-0.066-0.057-0.097l-3.191-4.781c-0.02-0.029-0.04-0.057-0.062-0.083L63,18.504  c-0.021-0.025-0.043-0.05-0.066-0.073l-4.204-4.163c-0.025-0.024-0.051-0.047-0.078-0.069l-4.275-3.431  c-0.035-0.027-0.071-0.053-0.109-0.076l-4.078-2.461c-0.056-0.033-0.114-0.062-0.175-0.083l-3.6-1.308  c-0.101-0.037-0.206-0.057-0.312-0.061l-2.854-0.085c-0.01,0-0.02,0-0.029,0c-0.181,0-0.357,0.049-0.513,0.142L40.75,8.003  c-0.051,0.03-0.099,0.064-0.143,0.104L1.949,41.674c-0.126,0.108-0.223,0.248-0.281,0.403l-0.871,2.32  c-0.05,0.134-0.071,0.276-0.062,0.419l0.225,3.319c0.006,0.082,0.021,0.164,0.047,0.242l1.336,4.106  c0.017,0.051,0.037,0.1,0.062,0.146l2.362,4.6c0.018,0.033,0.037,0.066,0.059,0.1l3.192,4.768c0.019,0.027,0.039,0.055,0.061,0.08  l3.839,4.641c0.021,0.025,0.042,0.049,0.064,0.07l4.19,4.178c0.025,0.025,0.053,0.049,0.081,0.072l4.289,3.432  c0.035,0.027,0.072,0.053,0.11,0.076l4.078,2.447c0.021,0.012,0.041,0.023,0.062,0.033L57.39,93.693  c0.144,0.072,0.299,0.107,0.453,0.107c0.236,0,0.47-0.084,0.656-0.244l38.657-33.582c0.251-0.217,0.377-0.547,0.336-0.877  c-0.04-0.33-0.242-0.619-0.539-0.77L71.152,45.221L72.968,43.649z M41.38,9.025l1.89-1.128l2.767,0.082l3.548,1.289l4.05,2.443  l4.257,3.416l4.189,4.148l3.832,4.631l3.176,4.758l2.35,4.559l1.325,4.059l0.22,3.26l-0.84,2.233l-2.899,2.513L34.12,75.791  l0.594-1.58c0.006-0.016-0.004-0.029-0.002-0.045c0.003-0.014,0.015-0.023,0.014-0.039l-0.225-3.318  c-0.001-0.01-0.009-0.016-0.011-0.025c-0.002-0.008,0.005-0.016,0.002-0.023l-1.336-4.094c-0.002-0.006-0.009-0.008-0.012-0.014  c-0.002-0.004,0.002-0.01-0.001-0.016l-2.362-4.598c-0.002-0.004-0.007-0.004-0.01-0.008c-0.002-0.004,0-0.008-0.002-0.012  l-3.192-4.781c-0.002-0.002-0.007-0.002-0.009-0.006c-0.002-0.002-0.001-0.006-0.003-0.01l-3.811-4.627  c-0.003-0.002-0.007-0.002-0.01-0.004c-0.002-0.004-0.001-0.008-0.004-0.01l-4.205-4.177c-0.003-0.003-0.007-0.002-0.01-0.004  c-0.003-0.003-0.003-0.008-0.006-0.011l-4.289-3.431c-0.004-0.003-0.009-0.001-0.013-0.004s-0.004-0.009-0.009-0.012l-4.092-2.461  c-0.007-0.004-0.015,0-0.021-0.003c-0.006-0.003-0.008-0.011-0.014-0.013l-3.586-1.309c-0.011-0.005-0.021,0.003-0.032,0.001  c-0.012-0.002-0.019-0.014-0.031-0.014l-2.869-0.07c-0.002,0-0.003,0-0.005,0c-0.02,0-0.032,0.016-0.05,0.021  s-0.036-0.002-0.052,0.008l-0.069,0.041L41.38,9.025z M21.281,73.623l-4.269-3.414l-4.176-4.162l-3.831-4.631l-3.177-4.744  l-2.35-4.574l-1.324-4.069l-0.22-3.248l0.832-2.216l1.843-1.088l2.783,0.068l3.529,1.288l4.072,2.449l4.271,3.416l4.186,4.157  l3.799,4.613l3.181,4.764l2.349,4.572l1.325,4.059l0.22,3.246l-0.832,2.215l-1.845,1.102l-2.779-0.068l-3.535-1.303L21.281,73.623z   M96.145,59.264L57.813,92.562L28.38,77.604l0.382,0.141c0.021,0.008,0.041,0.012,0.062,0.012c0.001,0,0.002,0.002,0.003,0.002  l2.869,0.07c0.002,0,0.003,0,0.005,0c0.035,0,0.07-0.01,0.103-0.029l1.955-1.166c0.002-0.002,0.002-0.004,0.003-0.006  c0.006-0.002,0.01-0.008,0.016-0.012c0.003-0.002,0.007,0,0.01-0.004l35.617-30.933L96.145,59.264z"></path></svg></g></svg>