<svg xmlns="http://www.w3.org/2000/svg" xmlns:xlink="http://www.w3.org/1999/xlink" width="100" height="100" viewBox="0 0 100 100"><circle stroke="none" fill="#ffffff" r="48%" cx="50%" cy="50%"></circle><g transform="translate(50 50) scale(0.69 0.69) rotate(0) translate(-50 -50)" style="fill:#002d73"><svg fill="#002d73" xmlns="http://www.w3.org/2000/svg" xmlns:xlink="http://www.w3.org/1999/xlink" version="1.1" x="0px" y="0px" viewBox="206 206 100 100" enable-background="new 206 206 100 100" xml:space="preserve"><g><path d="M297.422,244.594l-30.012-30.012c-0.818-0.818-1.893-1.287-2.95-1.287c-0.86,0-1.648,0.315-2.22,0.886   c-0.036,0.036-0.07,0.075-0.101,0.116l-37.766,49.449c-1.287,1.341-1.427,3.32-0.313,4.469c-0.352,0.168-0.678,0.393-0.962,0.677   l-8.786,8.786c-1.352,1.352-1.352,3.552,0,4.904l15.11,15.11c0.676,0.676,1.564,1.014,2.452,1.014s1.776-0.338,2.452-1.014   l8.786-8.786c0.287-0.287,0.51-0.615,0.675-0.962c0.505,0.49,1.19,0.76,1.938,0.76c0.904,0,1.822-0.39,2.533-1.073l49.449-37.766   c0.041-0.031,0.08-0.065,0.116-0.101C299.138,248.449,298.957,246.13,297.422,244.594z M241.477,287.271l-8.786,8.786   c-0.451,0.451-1.184,0.451-1.635,0l-2.515-2.515l5.21-5.21c0.451-0.451,0.451-1.183,0-1.635c-0.451-0.452-1.183-0.452-1.635,0   l-5.21,5.21l-2.588-2.588l5.21-5.21c0.451-0.451,0.451-1.183,0-1.635c-0.452-0.452-1.183-0.452-1.635,0l-5.21,5.21l-2.588-2.588   l5.21-5.21c0.451-0.451,0.451-1.183,0-1.635c-0.451-0.452-1.183-0.452-1.635,0l-5.21,5.21l-2.515-2.515   c-0.451-0.451-0.451-1.184,0-1.635l8.786-8.786c0.218-0.218,0.509-0.338,0.817-0.338s0.599,0.12,0.818,0.339c0,0,0,0,0.001,0   l15.11,15.11C241.928,286.088,241.928,286.82,241.477,287.271z M296.226,248.087l-49.428,37.75   c-0.041,0.031-0.08,0.065-0.116,0.101c-0.284,0.284-0.642,0.454-0.958,0.454c-0.102,0-0.242-0.019-0.332-0.109l-2.281-2.281   c0,0,0,0,0,0c0,0,0,0,0,0l-15.11-15.11c0,0,0,0,0,0c0,0-0.001-0.001-0.001-0.001l-2.28-2.28c-0.219-0.219-0.116-0.83,0.345-1.29   c0.036-0.036,0.07-0.075,0.101-0.116l37.75-49.428c0.168-0.14,0.385-0.17,0.543-0.17c0.441,0,0.933,0.228,1.315,0.61l30.012,30.012   C296.44,246.882,296.536,247.71,296.226,248.087z"></path><path d="M266.172,229.484c-0.451-0.451-1.183-0.451-1.635,0c-0.452,0.451-0.452,1.183,0,1.635l16.347,16.347   c0.226,0.226,0.521,0.339,0.817,0.339c0.296,0,0.592-0.113,0.817-0.339c0.452-0.451,0.452-1.183,0-1.635L266.172,229.484z"></path><path d="M265.9,237.385c-0.451-0.451-1.183-0.452-1.635,0c-0.452,0.451-0.452,1.183,0,1.635l8.718,8.718   c0.226,0.226,0.521,0.339,0.817,0.339c0.296,0,0.592-0.113,0.817-0.339c0.452-0.451,0.452-1.183,0-1.635L265.9,237.385z"></path><path d="M263.857,243.515c-0.451-0.451-1.183-0.451-1.635,0c-0.452,0.451-0.452,1.183,0,1.635l4.632,4.632   c0.226,0.226,0.522,0.339,0.817,0.339c0.296,0,0.592-0.113,0.817-0.339c0.452-0.451,0.452-1.183,0-1.635L263.857,243.515z"></path><path d="M256.092,244.469c-0.655-0.655-1.526-1.016-2.452-1.016c-0.926,0-1.797,0.361-2.452,1.016   c-0.029,0.029-0.056,0.059-0.081,0.09l-6.059,7.486c-1.307,1.354-1.362,3.448-0.113,4.697l4.346,4.346l-8.764,8.764   c-0.451,0.451-0.451,1.183,0,1.635c0.226,0.226,0.522,0.339,0.817,0.339c0.296,0,0.592-0.113,0.817-0.339l8.764-8.764l4.346,4.346   c0.584,0.584,1.375,0.906,2.226,0.906c0.902,0,1.799-0.37,2.471-1.019l7.486-6.059c0.032-0.026,0.062-0.053,0.09-0.081   c1.352-1.352,1.352-3.552,0-4.904L256.092,244.469z M265.935,259.145l-7.474,6.049c-0.031,0.025-0.062,0.052-0.09,0.081   c-0.247,0.247-0.569,0.388-0.884,0.388c-0.165,0-0.402-0.04-0.591-0.229l-10.326-10.327c-0.357-0.357-0.283-1.032,0.16-1.475   c0.029-0.029,0.056-0.059,0.081-0.09l6.049-7.474c0.214-0.196,0.489-0.304,0.781-0.304c0.309,0,0.599,0.12,0.817,0.339   l11.443,11.443C266.339,257.985,266.35,258.692,265.935,259.145z"></path></g></svg></g></svg>