<svg
        xmlns:dc="http://purl.org/dc/elements/1.1/"
        xmlns:cc="http://creativecommons.org/ns#"
        xmlns:rdf="http://www.w3.org/1999/02/22-rdf-syntax-ns#"
        xmlns:svg="http://www.w3.org/2000/svg"
        xmlns="http://www.w3.org/2000/svg"
        xmlns:sodipodi="http://sodipodi.sourceforge.net/DTD/sodipodi-0.dtd"
        xmlns:inkscape="http://www.inkscape.org/namespaces/inkscape"
        version="1.1"
        id="svg2"
        xml:space="preserve"
        width="1333.3333"
        height="1333.3333"
        viewBox="0 0 1333.3333 1333.3333"
        sodipodi:docname="shutterstock_1269716161.eps"><metadata
     id="metadata8"><rdf:RDF><cc:Work
         rdf:about=""><dc:format>image/svg+xml</dc:format><dc:type
        rdf:resource="http://purl.org/dc/dcmitype/StillImage" /></cc:Work></rdf:RDF></metadata><defs
        id="defs6" /><sodipodi:namedview
        pagecolor="#ffffff"
        bordercolor="#666666"
        borderopacity="1"
        objecttolerance="10"
        gridtolerance="10"
        guidetolerance="10"
        inkscape:pageopacity="0"
        inkscape:pageshadow="2"
        inkscape:window-width="640"
        inkscape:window-height="480"
        id="namedview4" /><g
        id="g10"
        inkscape:groupmode="layer"
        inkscape:label="ink_ext_XXXXXX"
        transform="matrix(1.3333333,0,0,-1.3333333,0,1333.3333)"><g
       id="g12"
       transform="scale(0.1)"><path
         d="M 7816.37,4513.54 6049.32,2721.91 c -208.66,-193.34 -426.78,-278.16 -583.87,-226.85 -93.16,30.45 -155.98,106.89 -176.9,215.27 -37.87,196.33 65.18,526.21 467.97,863.3 0.82,0.71 1.62,1.41 2.44,2.11 l 1658.46,1484.54 203.81,-120.46 c -26.52,-16.4 -53.87,-36.12 -82.01,-59.64 -2.17,-1.82 -4.26,-3.73 -6.27,-5.73 L 5567.32,2914.28 c -37.87,-37.8 -37.94,-99.12 -0.17,-137.01 37.79,-37.88 99.1,-37.95 136.99,-0.18 l 1962.5,1957.07 c 57.03,47.05 125.41,85.96 171.21,77.64 l 32.95,-19.48 c 40.98,-50.6 40.7,-183.41 -54.43,-278.78 z M 5087.03,2789.77 2287.95,5273.35 c -87.75,78.01 -190.9,207.89 -183.89,383.63 7.56,189.47 146.6,391.86 402.15,585.44 L 4392.09,7501.45 7618.63,5500.41 7341.17,5252.04 c -0.29,-0.26 -0.58,-0.52 -0.88,-0.78 L 5630.94,3721.17 c -349.81,-293.16 -545.96,-632.77 -543.91,-931.4 z m 2923.79,2136.81 c -4.32,4.71 -8.91,9.24 -13.61,13.65 -0.16,0.15 -0.32,0.31 -0.47,0.45 -22.58,21.02 -49.63,38.37 -80.7,49.95 l -347.19,205.2 275.41,246.52 c 22.75,20.36 34.57,50.24 31.89,80.65 -2.65,30.39 -19.51,57.77 -45.45,73.86 l -3389.49,2102.1 c -32.26,20 -73.26,19.33 -104.84,-1.76 L 2396.27,6401.97 c -1.56,-1.05 -3.09,-2.14 -4.59,-3.27 -309.18,-233.52 -471.09,-480.48 -481.19,-734 -7.85,-196.19 80.51,-386.6 248.81,-536.2 L 5262.75,2374.82 c 15.51,-13.75 34.18,-21.64 53.32,-23.78 27.7,-16.31 57.5,-29.77 89.22,-40.14 50.1,-16.37 102.82,-24.42 157.41,-24.4 194.57,0 412.79,102.31 620.01,294.91 1.04,0.95 2.04,1.93 3.03,2.93 l 1768.19,1792.75 c 155.56,155.96 182.14,412.71 56.89,549.49"
         style="fill:#231f20;fill-opacity:1;fill-rule:nonzero;stroke:none"
         id="path14" /><path
        d="m 3453.24,6441.85 805.06,-586.93 -755.86,-547.1 -765.98,630.71 z m -893.9,-558.25 890.78,-733.47 c 14.27,-11.75 31.76,-17.67 49.27,-17.67 15.9,0 31.84,4.88 45.43,14.72 l 890.77,644.73 c 20.11,14.55 32.01,37.84 32.07,62.65 0.04,24.81 -11.8,48.14 -31.84,62.75 l -936.07,682.44 c -26.82,19.54 -63.07,19.85 -90.2,0.8 l -845.51,-593.7 c -19.78,-13.91 -31.97,-36.26 -32.89,-60.45 -0.94,-24.18 9.49,-47.41 28.19,-62.8"
        style="fill:#231f20;fill-opacity:1;fill-rule:nonzero;stroke:none"
        id="path16" /><path
        d="m 4367.34,6684.21 c 12.33,-8.54 27.48,-12.15 45.45,-10.85 17.93,1.31 36.76,8.6 56.41,21.84 l 301.44,203.14 -130.66,-319.04 c -3.32,-8.88 -6.48,-17.63 -9.47,-26.28 -2.99,-8.65 -4.55,-16.91 -4.75,-24.78 -0.19,-7.85 1.6,-14.93 5.39,-21.24 3.81,-6.29 9.73,-12.24 17.85,-17.84 32.33,-22.42 71.12,-18.43 116.27,12 l 404.67,272.67 c 19.86,13.4 31.02,26.04 33.5,37.93 2.44,11.88 -2.8,22.31 -15.74,31.29 -12.54,8.68 -27.49,12.23 -44.83,10.65 -17.32,-1.59 -35.92,-9.09 -55.8,-22.48 L 4781.02,6625 l 129.94,324.35 c 4.02,9.35 7.87,18.36 11.52,27.02 3.61,8.69 5.84,16.26 6.64,22.74 0.8,6.48 -0.16,12.74 -2.87,18.79 -2.75,6.03 -8.16,11.87 -16.23,17.48 -10.33,7.14 -23.28,11.54 -38.83,13.22 -15.58,1.67 -30.55,0.29 -44.94,-4.14 -12.81,-4.23 -27.66,-12 -44.51,-23.36 l -396.92,-267.46 c -19.43,-13.09 -30.39,-25.72 -32.85,-37.91 -2.52,-12.18 2.62,-22.68 15.37,-31.52"
        style="fill:#231f20;fill-opacity:1;fill-rule:nonzero;stroke:none"
        id="path18" /><path
        d="m 4832.93,6394.36 c -1.47,-12.74 7.64,-25.9 27.25,-39.5 l 244.92,-169.63 c 14.16,-9.8 28.63,-14.64 43.4,-14.48 14.8,0.14 28.28,4.32 40.43,12.52 12.65,8.51 19.16,17.82 19.61,27.92 0.41,10.09 -6.47,20.06 -20.63,29.85 l -210.02,145.46 146.35,98.62 186.95,-129.48 c 13.99,-9.67 27.95,-14.34 42.01,-13.99 14.05,0.34 26.92,4.45 38.62,12.33 11.7,7.89 17.71,16.58 18.06,26.08 0.39,9.5 -6.31,19.02 -20.06,28.55 l -186.97,129.49 126.35,85.13 203.05,-140.63 c 14.35,-9.94 28.69,-14.86 43.06,-14.72 14.34,0.13 27.6,4.29 39.79,12.49 11.91,8.04 18.06,16.96 18.47,26.76 0.39,9.8 -6.62,19.68 -20.97,29.62 l -237.93,164.8 c -12.72,8.83 -25.39,14.63 -37.91,17.38 -12.52,2.76 -25.43,2.28 -38.75,-1.44 -13.3,-3.73 -27.48,-10.63 -42.44,-20.72 l -386.74,-260.61 c -22.46,-15.13 -34.44,-29.07 -35.9,-41.8"
        style="fill:#231f20;fill-opacity:1;fill-rule:nonzero;stroke:none"
        id="path20" /><path
        d="m 5612.36,6427.88 -282.85,-295.71 c -8.38,-8.82 -17.36,-18.45 -26.93,-28.93 -9.59,-10.47 -16.6,-20.36 -21.1,-29.71 -4.49,-9.33 -5.48,-18.28 -3.02,-26.81 2.5,-8.51 9.51,-16.78 21.05,-24.79 14.3,-9.88 29.94,-15 46.94,-15.31 17.01,-0.32 32.51,1.88 46.56,6.6 14.06,4.71 36.15,13.24 66.35,25.53 l 396.03,163.51 -245.66,-267.65 c -18.97,-21.09 -31.92,-36.26 -38.87,-45.56 -6.97,-9.28 -10.29,-19.7 -9.92,-31.23 0.35,-11.54 7.67,-22.25 21.95,-32.15 15.14,-10.48 31.13,-15.73 47.91,-15.75 16.82,-0.02 32.6,2.58 47.34,7.79 14.81,5.21 36.94,14.19 66.49,26.93 l 436.74,189.15 c 26.46,11.54 44.68,20.66 54.65,27.38 14.08,9.49 21.56,20.35 22.4,32.54 0.86,12.21 -4.83,22.53 -17.01,30.97 -12.19,8.45 -25.12,12.43 -38.83,11.95 -13.71,-0.47 -26.47,-2.9 -38.34,-7.3 -11.86,-4.42 -27.4,-11.09 -46.64,-20.02 l -372.54,-168.33 223.61,244.11 c 18.38,20.15 31.08,34.91 38.17,44.27 7.09,9.37 10.72,20.06 10.87,32.08 0.14,12.02 -7.65,23.49 -23.43,34.4 -15.55,10.78 -32.09,16.43 -49.63,16.96 -17.56,0.53 -34.14,-1.76 -49.79,-6.87 -15.66,-5.09 -37.2,-13.43 -64.59,-24.99 l -359.76,-149.81 251.5,252.19 c 19.67,19.25 32.83,35.18 39.61,47.78 6.74,12.59 1.6,24.77 -15.41,36.57 -12.42,8.59 -27.56,12.59 -45.41,12.03 -17.91,-0.56 -33.73,-5.53 -47.62,-14.85 -10.91,-7.38 -24.55,-19.69 -40.82,-36.97"
        style="fill:#231f20;fill-opacity:1;fill-rule:nonzero;stroke:none"
        id="path22" /><path
        d="m 6150.21,5908.66 c -7.85,-23.77 -6.46,-47.82 4.17,-72.11 10.7,-24.3 28.47,-51.43 53.37,-81.32 18.77,-22.25 32.84,-40.66 42.02,-55.27 9.27,-14.62 13,-29.09 11.28,-43.44 -1.75,-14.32 -11.75,-27.65 -30.05,-39.95 -22.99,-15.52 -51.1,-22.26 -84.34,-20.26 -33.24,1.98 -64.14,12.86 -92.73,32.64 -20.73,14.39 -33.7,28.57 -38.81,42.56 -5.18,13.99 -5.35,27.36 -0.61,40.16 4.69,12.81 12.78,27.18 24.26,43.18 9.77,13.39 14.9,25.06 15.39,34.99 0.45,9.91 -4.37,18.4 -14.59,25.45 -12.52,8.69 -27.68,12.6 -45.39,11.71 -17.73,-0.86 -33.4,-5.85 -46.86,-14.95 -23.3,-15.66 -40.48,-36.5 -51.62,-62.47 -11.11,-25.97 -13.24,-51.42 -6.38,-76.33 10,-34.97 38.47,-68.69 85.45,-101.21 39.16,-27.12 80.48,-45.52 124.04,-55.17 43.59,-9.65 86.01,-10.71 127.38,-3.09 41.33,7.58 78.65,22.6 111.94,45.03 27.75,18.72 46.93,37.47 57.5,56.3 10.6,18.81 14.51,37.7 11.77,56.71 -2.69,18.98 -10.6,38.97 -23.57,59.92 -12.99,20.97 -29.3,43.17 -48.85,66.63 -15.18,19.06 -25.74,32.89 -31.84,41.53 -6.03,8.64 -10.74,18.03 -14.04,28.2 -3.34,10.18 -3.59,19.76 -0.76,28.76 2.81,8.98 9.69,17.17 20.68,24.61 17.78,11.96 40.63,16.93 68.5,14.86 27.91,-2.05 54.26,-11.67 79.16,-28.91 26.82,-18.56 40.47,-35.99 40.94,-52.22 0.47,-16.22 -5.33,-34.34 -17.44,-54.33 -7.84,-14.41 -12.02,-25.74 -12.66,-34.02 -0.64,-8.27 4.51,-16.23 15.55,-23.88 12.14,-8.38 27.56,-11.82 46.29,-10.27 18.75,1.56 34.74,6.79 48.02,15.73 14.51,9.78 26.16,22.05 34.91,36.83 8.76,14.79 13.08,31.73 12.91,50.81 -0.2,19.1 -6.72,38.85 -19.63,59.26 -12.95,20.4 -34.01,40.71 -63.25,60.94 -36.52,25.33 -74.64,43.1 -114.35,53.31 -39.67,10.22 -78.42,12.35 -116.19,6.4 -37.82,-5.96 -71.8,-19.16 -102.07,-39.54 -31.8,-21.41 -51.62,-44.01 -59.5,-67.78"
        style="fill:#231f20;fill-opacity:1;fill-rule:nonzero;stroke:none"
        id="path24" /><path
        d="m 3537.36,6738.29 2840.41,-2029.4 c 13.66,-9.77 29.4,-14.48 45,-14.48 24.18,0 47.99,11.29 63.13,32.46 24.86,34.83 16.81,83.23 -18.03,108.11 L 3627.46,6864.39 c -34.82,24.9 -83.22,16.83 -108.1,-17.99 -24.89,-34.83 -16.82,-83.23 18,-108.11"
        style="fill:#231f20;fill-opacity:1;fill-rule:nonzero;stroke:none"
        id="path26" /><path
        d="m 5868.93,4615.21 -1373.91,962.78 c -35.04,24.56 -83.36,16.06 -107.93,-18.99 -24.57,-35.05 -16.05,-83.38 18.98,-107.93 l 1373.91,-962.79 c 13.54,-9.49 29.04,-14.04 44.41,-14.04 24.42,0 48.46,11.5 63.54,33.03 24.55,35.05 16.05,83.37 -19,107.94"
        style="fill:#231f20;fill-opacity:1;fill-rule:nonzero;stroke:none"
        id="path28" /><path
        d="M 5455.2,4236.72 4088.83,5242.17 c -34.47,25.37 -82.97,17.99 -108.34,-16.48 -25.37,-34.47 -17.99,-82.98 16.48,-108.35 L 5363.34,4111.87 c 13.83,-10.17 29.9,-15.07 45.86,-15.07 23.81,0 47.28,10.91 62.48,31.56 25.37,34.47 17.99,82.99 -16.48,108.36"
        style="fill:#231f20;fill-opacity:1;fill-rule:nonzero;stroke:none"
        id="path30" /><path
        d="M 4937.62,3615.12 2469.1,5645.8 c -33.06,27.19 -81.89,22.43 -109.08,-10.61 -27.19,-33.06 -22.44,-81.89 10.61,-109.09 L 4839.16,3495.43 c 14.43,-11.88 31.86,-17.64 49.18,-17.64 22.38,0 44.57,9.63 59.88,28.26 27.21,33.05 22.44,81.88 -10.6,109.07"
        style="fill:#231f20;fill-opacity:1;fill-rule:nonzero;stroke:none"
        id="path32" /></g></g></svg>